<?xml version="1.0" encoding="iso-8859-1"?>
<!-- Generator: Adobe Illustrator 19.1.0, SVG Export Plug-In . SVG Version: 6.00 Build 0)  -->
<svg version="1.1" id="Capa_1" xmlns="http://www.w3.org/2000/svg" xmlns:xlink="http://www.w3.org/1999/xlink" x="0px" y="0px"
	 viewBox="0 0 484.564 484.564" style="enable-background:new 0 0 484.564 484.564;" xml:space="preserve">
<g>
	<g>
		<path d="M206.164,233.847h29c4.2,0,7.7-3.4,7.7-7.7v-0.8c0-4.2-3.4-7.7-7.7-7.7h-22.1h-11.6c-4.5,0-8.5,3-9.7,7.3l-7.6,26.7
			c-3.5-2.2-7.6-3.4-11.9-3.4h-149.3c-6.9,0-13.5,3-17.9,8.3c-4.5,5.6-6.1,12.8-4.4,19.7l20.3,81.7c2.5,10.1,11.5,17.1,21.9,17.1
			h23.4h83h15.3c5.2,0,9.4,4.3,9.2,9.5c-0.2,5-4.4,8.8-9.4,8.8h-102.1c-14.5,0-26.5,11.6-26.5,26.1c0,15,12.8,27.1,28,26
			c12.4-0.9,22.6-10.6,24-23c0.5-4.1,0-8-1.3-11.6h30.5c-0.9,2.7-1.5,5.6-1.5,8.6c0,15,12.7,27.1,27.9,26
			c12.8-0.9,23.1-11.1,24.2-23.9c0.3-3.8-0.2-7.4-1.4-10.8c13.9-0.9,24.9-12.5,24.9-26.6c0-12.5-8.6-23-20.2-25.9l20.4-72.3
			L206.164,233.847z M61.864,428.247c-4.7,0-8.6-3.9-8.6-8.6s3.9-8.6,8.6-8.6s8.6,3.9,8.6,8.6S66.564,428.247,61.864,428.247z
			 M141.664,428.247c-4.7,0-8.6-3.9-8.6-8.6s3.9-8.6,8.6-8.6c4.7,0,8.6,3.9,8.6,8.6S146.364,428.247,141.664,428.247z
			 M17.564,272.147c-0.5-2.1,0.4-3.6,0.9-4.3c0.6-0.7,1.8-1.9,4-1.9h14.4l4.3,20.3h-20.1L17.564,272.147z M25.464,303.647h19.4
			l4,18.8h-18.8L25.464,303.647z M42.764,357.647c-2.3,0-4.4-1.6-4.9-3.8l-3.5-13.9h18.1l3.7,17.8h-13.4V357.647z M87.964,357.647
			h-13.8l-3.7-17.8h17.5C87.964,339.847,87.964,357.647,87.964,357.647z M87.964,322.447h-21.3l-4-18.8h25.2v18.8H87.964z
			 M87.964,286.147h-28.9l-4.3-20.3h33.2V286.147z M117.764,357.647h-12.3v-17.8h16.2L117.764,357.647z M125.564,322.447h-20.1
			v-18.8h24.2L125.564,322.447z M105.464,286.147v-20.3h32.5l-4.4,20.3H105.464z M154.064,353.947c-0.6,2.2-2.6,3.7-4.9,3.7h-13.5
			l3.9-17.8h18.4L154.064,353.947z M162.964,322.447h-19.5l4.1-18.8h20.7L162.964,322.447z M177.064,272.347l-3.9,13.8h-21.8
			l4.4-20.3h16.4c2.2,0,3.5,1.3,4,2C176.864,268.647,177.664,270.247,177.064,272.347z"/>
		<path d="M482.364,303.747l-19.3-23.8c-3.1-3.8-4.8-8.5-4.8-13.4v-27.6v-8.2v-154.2c0-20.7-16.8-37.5-37.5-37.5h-161.4h-140.4
			c-20.7,0-37.5,16.8-37.5,37.5v113.3l0,0v32.9h37.4v-146.3c0,0,0,0,0.1,0h123.5h178.3c0.1,0,0.1,0,0.1,0v154.2v9.9v28.4h-196.6
			l-4.8,17.2l-17,60.2h256.6c14.1,0,25.5-11.4,25.5-25.5v-10.9C484.564,307.747,483.764,305.547,482.364,303.747z M310.464,309.247
			c0,7.1-5.8,12.9-12.9,12.9h-55.5c-7.1,0-12.9-5.8-12.9-12.9v-2.8h81.4v2.8H310.464z"/>
	</g>
</g>
<g>
</g>
<g>
</g>
<g>
</g>
<g>
</g>
<g>
</g>
<g>
</g>
<g>
</g>
<g>
</g>
<g>
</g>
<g>
</g>
<g>
</g>
<g>
</g>
<g>
</g>
<g>
</g>
<g>
</g>
</svg>
