<?xml version="1.0" encoding="iso-8859-1"?>
<!-- Generator: Adobe Illustrator 18.0.0, SVG Export Plug-In . SVG Version: 6.00 Build 0)  -->
<!DOCTYPE svg PUBLIC "-//W3C//DTD SVG 1.1//EN" "http://www.w3.org/Graphics/SVG/1.1/DTD/svg11.dtd">
<svg version="1.1" id="Capa_1" xmlns="http://www.w3.org/2000/svg" xmlns:xlink="http://www.w3.org/1999/xlink" x="0px" y="0px"
	 viewBox="0 0 297 297" style="enable-background:new 0 0 297 297;" xml:space="preserve">
<g>
	<path d="M38.024,275.977h152.165c4.029,0,7.296-3.266,7.296-7.296c0-45.975-37.403-83.378-83.378-83.378
		s-83.378,37.403-83.378,83.378C30.729,272.711,33.995,275.977,38.024,275.977z"/>
	<path d="M286.074,282.409H10.926c-4.029,0-7.296,3.266-7.296,7.296c0,4.029,3.266,7.296,7.296,7.296h275.148
		c4.029,0,7.296-3.266,7.296-7.296C293.369,285.675,290.103,282.409,286.074,282.409z"/>
	<path d="M190.474,78.29c21.293-12.793,40.753-11.366,54.1-7.377c6.5,1.943,12.084,4.623,16.512,7.2
		c-7.296-27.482-21.383-36.624-29.798-39.661c-3.713-1.338-7.353-1.915-10.764-1.915c-7.104,0-13.223,2.499-16.983,5.82
		C198.847,46.503,193.806,63.136,190.474,78.29z"/>
	<path d="M196.64,34.546c2.219-1.96,4.734-3.575,7.444-4.864l14.338-29.675c-9.047-0.154-25.375,1.958-39.859,16.44
		c-7.645,7.646-11.275,16.192-11.098,26.129c0.217,12.234,6.278,24.36,12.721,33.86C183.229,62.24,188.836,41.439,196.64,34.546z"/>
	<path d="M133.694,94.673c-6.413,3.31-10.96,8.978-13.147,16.391c-2.683,9.091-3.043,24.471,8.015,48.388
		c3.891-18.683,13.64-48.941,37.365-66.088c-5.527-0.457-11.221-0.756-16.337-0.756C142.544,92.608,136.596,93.175,133.694,94.673z"
		/>
	<path d="M112.796,102.209c3.458-7.347,8.941-13.094,16.116-16.798c7.841-4.048,25.02-3.574,38.288-2.429
		c-10.031-7.866-25.175-17.278-40.478-17.55c-9.91-0.165-18.483,3.452-26.129,11.098c-14.481,14.481-16.59,30.811-16.439,39.859
		L112.796,102.209z"/>
	<path d="M212.462,273.222c1.384,1.74,3.487,2.755,5.711,2.755h46.275c1.938,0,3.795-0.77,5.164-2.142
		c1.368-1.371,2.135-3.23,2.131-5.168c-0.132-65.025-13.653-115.544-40.185-150.152c-20.415-26.63-41.187-33.346-42.062-33.619
		c-2.961-0.925-6.171,0.123-8.021,2.607c-1.85,2.482-1.931,5.866-0.203,8.434c0.13,0.193,13.093,19.65,23.169,50.443
		c9.228,28.203,17.868,72.031,6.622,120.658C210.563,269.205,211.078,271.482,212.462,273.222z"/>
</g>
<g>
</g>
<g>
</g>
<g>
</g>
<g>
</g>
<g>
</g>
<g>
</g>
<g>
</g>
<g>
</g>
<g>
</g>
<g>
</g>
<g>
</g>
<g>
</g>
<g>
</g>
<g>
</g>
<g>
</g>
</svg>
