<?xml version="1.0" encoding="iso-8859-1"?>
<!-- Generator: Adobe Illustrator 18.0.0, SVG Export Plug-In . SVG Version: 6.00 Build 0)  -->
<!DOCTYPE svg PUBLIC "-//W3C//DTD SVG 1.1//EN" "http://www.w3.org/Graphics/SVG/1.1/DTD/svg11.dtd">
<svg version="1.1" id="Capa_1" xmlns="http://www.w3.org/2000/svg" xmlns:xlink="http://www.w3.org/1999/xlink" x="0px" y="0px"
	 viewBox="0 0 297 297" style="enable-background:new 0 0 297 297;" xml:space="preserve">
<path d="M278.534,277.298h-6.511c-1.312-64.756-15.651-115.428-42.684-150.691c-10.29-13.422-20.711-22.148-28.972-27.66
	c30.035-14.486,54,6.995,55.197,8.096c1.866,1.739,4.278,2.644,6.718,2.644c1.567,0,3.146-0.373,4.596-1.14
	c3.72-1.963,5.783-6.074,5.133-10.231c-6.713-42.988-28.099-56.759-40.249-61.141c-3.494-1.26-7.08-2.058-10.657-2.431l9.9-19.8
	c1.359-2.719,1.387-5.913,0.076-8.655c-1.311-2.742-3.815-4.725-6.785-5.374c-1.302-0.286-32.234-6.682-57.831,18.912
	c-10.079,10.08-15.064,22.005-14.815,35.446c0.08,4.336,0.738,8.601,1.788,12.744c-7.778-3.537-16.363-6.052-25.223-6.216
	c-13.457-0.225-25.366,4.736-35.446,14.815c-25.596,25.595-19.197,56.527-18.912,57.832c0.648,2.969,2.632,5.473,5.375,6.784
	c1.344,0.643,2.797,0.964,4.249,0.964c1.51,0,3.02-0.347,4.405-1.04l17.993-8.996c0.313,13.107,4.63,30.83,17.817,53.846
	c1.782,3.109,5.071,4.954,8.546,4.954c0.723,0,1.456-0.08,2.183-0.245c4.222-0.959,7.324-4.562,7.643-8.88
	c0.04-0.541,4.118-50.61,35.138-69.215c11.77,20.884,42.377,84.443,28.943,160.326c-6.424-44.001-44.405-77.901-90.16-77.901
	c-47.254,0-86.218,36.156-90.69,82.256h-6.836c-5.44,0-9.851,4.411-9.851,9.851c0,5.44,4.411,9.851,9.851,9.851h260.068
	c5.44,0,9.851-4.411,9.851-9.851C288.385,281.709,283.974,277.298,278.534,277.298z M246.512,79.037
	c-1.84-0.722-3.774-1.398-5.792-2.001c-11.534-3.447-27.517-5.035-45.259,2.445c2.856-10.633,6.032-18.963,8.323-21.026
	c2.708-2.393,7.371-4.251,12.826-4.251c2.678,0,5.547,0.448,8.469,1.503C234.158,58.982,241.47,67.037,246.512,79.037z
	 M180.399,33.757c8.778-8.778,18.361-12.245,25.914-13.483L196.11,39.838c-1.909,1.12-3.718,2.392-5.369,3.851
	c-6.22,5.493-10.945,18.218-14.23,30.302c-2.943-6.04-5.05-12.6-5.161-19.131C171.214,46.884,174.173,39.982,180.399,33.757z
	 M106.703,90.546c6.223-6.224,13.114-9.203,21.102-9.049c7.149,0.121,14.333,2.63,20.831,6.015
	c-8.275,0.123-16.047,1.059-20.909,3.569c-7.197,3.715-12.816,9.311-16.565,16.409l-17.952,8.976
	C94.447,108.918,97.913,99.335,106.703,90.546z M128.762,149.507c-3.471-11.173-4.183-20.873-1.959-28.408
	c1.702-5.768,5.053-9.977,9.961-12.511c1.817-0.938,6.496-1.391,12.708-1.391c1.001,0,2.043,0.012,3.119,0.036
	C140.462,119.718,133.143,135.678,128.762,149.507z M208.454,132.104c19.757,22.395,42.16,65.284,43.868,145.193h-26.933
	c9.201-50.91-0.026-96.177-9.843-125.984C213.257,144.361,210.847,137.937,208.454,132.104z M115.992,214.744
	c36.377,0,66.468,27.344,70.85,62.554h-141.7C49.524,242.088,79.614,214.744,115.992,214.744z"/>
<g>
</g>
<g>
</g>
<g>
</g>
<g>
</g>
<g>
</g>
<g>
</g>
<g>
</g>
<g>
</g>
<g>
</g>
<g>
</g>
<g>
</g>
<g>
</g>
<g>
</g>
<g>
</g>
<g>
</g>
</svg>
