<?xml version="1.0" encoding="iso-8859-1"?>
<!-- Generator: Adobe Illustrator 16.0.0, SVG Export Plug-In . SVG Version: 6.00 Build 0)  -->
<!DOCTYPE svg PUBLIC "-//W3C//DTD SVG 1.1//EN" "http://www.w3.org/Graphics/SVG/1.1/DTD/svg11.dtd">
<svg version="1.1" id="Capa_1" xmlns="http://www.w3.org/2000/svg" xmlns:xlink="http://www.w3.org/1999/xlink" x="0px" y="0px"
	 width="478.502px" height="478.502px" viewBox="0 0 478.502 478.502" style="enable-background:new 0 0 478.502 478.502;"
	 xml:space="preserve">
<g>
	<g id="Layer_2_3_">
		<g>
			<path d="M329.257,357.123c-0.002,0-0.019,0.008-0.026,0.01c-0.092-0.008-0.179-0.029-0.274-0.029c-2.271,0-4.11,1.842-4.11,4.111
				c0,0.017,0.004,0.031,0.004,0.047c0,0.018-0.005,0.031-0.005,0.049c0,0.168,0.031,0.328,0.049,0.492
				c-0.002,0-0.007,0.011-0.007,0.011l0.027,0.185c0.012,0.062,0.016,0.126,0.026,0.188l7.562,51.72
				c0.517,3.548-0.903,7.101-3.727,9.311c-1.789,1.399-3.963,2.125-6.157,2.125c-1.277,0-2.558-0.247-3.778-0.743
				c0,0-47.767-21.384-57.095-24.543c-0.024-0.009-0.064-0.008-0.099-0.012c-0.616-0.223-1.276-0.352-1.971-0.352
				c-1.771,0-3.354,0.799-4.416,2.053c-0.001,0.001-0.015,0.004-0.015,0.004l-11.797,11.825c0,0-0.021-0.015-0.029-0.021
				c-1.043,1.002-2.453,1.622-4.01,1.622c-0.055,0-0.107-0.007-0.159-0.009c-0.053,0.002-0.105,0.009-0.159,0.009
				c-1.56,0-2.97-0.619-4.011-1.622c-0.01,0.007-0.03,0.021-0.03,0.021l-11.797-11.826c0,0-0.014-0.003-0.016-0.004
				c-1.061-1.254-2.644-2.053-4.415-2.053c-0.693,0-1.354,0.129-1.971,0.352c-0.034,0.004-0.076,0.003-0.098,0.012
				c-9.328,3.159-57.096,24.543-57.096,24.543c-1.221,0.496-2.5,0.743-3.775,0.743c-2.196,0-4.371-0.725-6.16-2.125
				c-2.824-2.21-4.243-5.763-3.725-9.311l7.648-51.785c0.002-0.009-0.007-0.01-0.008-0.018c0.064-0.286,0.103-0.582,0.103-0.887
				c0-2.271-1.84-4.111-4.111-4.111c-0.109,0-0.21,0.022-0.317,0.031c-0.022,0-0.048-0.015-0.069-0.013
				c-30.439,2.024-69.761,29.439-69.761,63.964c0,35.886,0,57.416,0,57.416H239.25h159.767c0,0,0-21.53,0-57.416
				C399.018,386.562,359.696,359.147,329.257,357.123z"/>
			<path d="M193.745,210.498c-12.165,0-22.024,9.859-22.024,22.006c0,12.132,9.859,22.005,22.024,22.005
				c12.128,0,21.988-9.844,21.988-22.005C215.732,220.357,205.873,210.498,193.745,210.498z M198.256,246.526
				c-6.233,0-11.279-5.062-11.279-11.309c0-6.22,5.046-11.278,11.279-11.278c6.232,0,11.262,5.058,11.262,11.278
				C209.517,241.465,204.488,246.526,198.256,246.526z"/>
			<path d="M215.064,143.409h24.079v0.042h0.105h0.106v-0.042h24.078c5.241,0,9.823-2.62,12.769-6.551
				c1.64-2.616,2.618-5.564,2.618-8.839v-1.309v-12.441V35.688V24.556v-9.168c0-0.654-0.329-1.31-0.329-1.964
				C277.841,5.893,271.291,0,263.433,0h-24.185h-24.185c-7.857,0-14.406,5.894-15.058,13.424c0,0.654-0.329,1.31-0.329,1.964v9.168
				v11.132v78.581v12.441v1.309c0,3.275,0.98,6.223,2.619,8.839C205.243,140.789,209.825,143.409,215.064,143.409z"/>
			<path d="M284.756,210.498c-12.129,0-21.989,9.859-21.989,22.006c0,12.162,9.86,22.005,21.989,22.005
				c12.164,0,22.022-9.875,22.022-22.005C306.778,220.357,296.92,210.498,284.756,210.498z M280.243,246.526
				c-6.23,0-11.261-5.062-11.261-11.309c0-6.22,5.029-11.278,11.261-11.278c6.234,0,11.28,5.058,11.28,11.278
				C291.523,241.465,286.478,246.526,280.243,246.526z"/>
			<path d="M397.183,181.456c12.501-1.275,22.257-11.834,22.257-24.675c0-13.699-11.104-24.804-24.805-24.804h-19.54l-1.328-4.173
				c-11.341-37.686-41.343-76.465-79.391-95.858v88.175v10.242c0,1.464,0,2.562-0.368,4.025c-0.73,4.024-1.829,7.685-4.024,10.978
				c-4.758,8.049-13.899,13.537-24.147,13.537H239.25h-26.586c-10.247,0-19.39-5.487-24.147-13.537
				c-2.194-3.292-3.294-6.953-4.024-10.978c-0.367-1.463-0.367-2.561-0.367-4.025v-10.242V31.946
				c-38.049,19.393-68.051,58.173-79.392,95.858l-1.327,4.173H83.867c-13.699,0-24.804,11.105-24.804,24.804
				c0,12.84,9.755,23.399,22.257,24.675c0,0,3.15,0.335,5.865-0.163c-10.483,9.464-16.544,24.765-16.544,43.357
				c0,14.614,3.462,26.4,10.289,35.035c6.871,8.688,16.809,13.609,28.875,14.344c12.296,21.688,30.324,41.398,51.286,55.97
				c24.396,16.958,51.333,26.118,78.055,26.624v0.053c0.035,0,0.07-0.004,0.105-0.004c0.035,0,0.071,0.002,0.106,0.004v-0.053
				c26.722-0.506,53.658-9.665,78.055-26.624c20.963-14.571,38.989-34.282,51.285-55.97c12.067-0.732,22.004-5.654,28.876-14.344
				c6.827-8.635,10.289-20.421,10.289-35.035c0-18.592-6.061-33.893-16.545-43.357C394.03,181.792,397.183,181.456,397.183,181.456z
				 M365.496,254.445c-0.356,0-0.878-0.041-1.429-0.084l-6.966-0.526l-2.986,5.794c-18.938,36.738-62.791,76.233-114.866,77.334
				c-52.075-1.102-95.929-40.597-114.866-77.334l-2.986-5.794l-6.966,0.526c-0.551,0.043-1.07,0.084-1.427,0.084
				c-15.053,0-22.685-10.023-22.685-29.794c0-6.382,1.229-26.845,16.289-32.588c2.878,12.124,7.983,28.727,14.534,29.761
				c10.302,1.625,3.015-34.374,14.116-44.269c30.976-2.153,70.712-4.416,103.885-4.687v0.039c0.034,0,0.07,0.001,0.105,0.001
				c0.035,0,0.071-0.001,0.106-0.001v-0.039c33.173,0.271,72.909,2.534,103.885,4.687c11.102,9.896,3.813,45.895,14.115,44.269
				c6.551-1.035,11.656-17.638,14.534-29.761c15.061,5.743,16.29,26.206,16.29,32.588
				C388.181,244.422,380.548,254.445,365.496,254.445z"/>
		</g>
	</g>
</g>
<g>
</g>
<g>
</g>
<g>
</g>
<g>
</g>
<g>
</g>
<g>
</g>
<g>
</g>
<g>
</g>
<g>
</g>
<g>
</g>
<g>
</g>
<g>
</g>
<g>
</g>
<g>
</g>
<g>
</g>
</svg>
