<?xml version="1.0" encoding="UTF-8"?>
<!DOCTYPE svg PUBLIC "-//W3C//DTD SVG 1.1//EN" "http://www.w3.org/Graphics/SVG/1.1/DTD/svg11.dtd">
<!-- Creator: CorelDRAW -->
<svg xmlns="http://www.w3.org/2000/svg" xml:space="preserve" width="200mm" height="200mm" style="shape-rendering:geometricPrecision; text-rendering:geometricPrecision; image-rendering:optimizeQuality; fill-rule:evenodd; clip-rule:evenodd"
viewBox="0 0 210 297" xmlns:xlink="http://www.w3.org/1999/xlink">
<script type="text/javascript">
  function hoverDepartment(evt) {
    evt.target.style.fill = '#167178';

  }

  function outDepartment(evt) {
    evt.target.style.fill = '';
  }

</script>
 <defs>
  <style type="text/css">
   <![CDATA[
    .str1 {stroke:#1F1A17;stroke-width:0.1}
    .str2 {stroke:black;stroke-width:0.1;stroke-opacity:0.501961}
    .str0 {stroke:black;stroke-width:0.1}
    .str3 {stroke:#1F1A17;stroke-width:0.5}
    .fil3 {fill:none}
    .fil0 {fill:white}
    .fil6 {fill:#C2C1C1;fill-rule:nonzero}
    .fil7 {fill:white;fill-rule:nonzero}
    .fil5 {fill:black;fill-rule:nonzero}
    .fil2 {fill:#000066;fill-rule:nonzero}
    .fil4 {fill:white;fill-rule:nonzero;fill-opacity:0.501961}
    .fil1 {fill:white;fill-opacity:0.701961}
   ]]>
  </style>
 </defs>
 <g id="Plan_x0020_1">
  <metadata id="CorelCorpID_0Corel-Layer"/>
  <path onmouseover="hoverDepartment(evt)" onmouseout="outDepartment(evt)" class="fil0 str0" d="M91.0216 246.398l0.8223 0.0119 -0.0715 -2.8885c-0.1102,-0.4826 -0.4833,-0.8672 -0.5959,-1.4084 -0.1635,-0.7863 -0.1391,-1.6627 -0.4528,-2.3752 -0.3382,-0.7683 0.6763,-0.6863 -0.2622,-1.301 -0.888,-0.5815 -1.6567,-1.0375 -2.145,-2.0172 -0.5226,-1.0488 -0.7021,-2.3487 -1.287,-3.3897 0.0136,-0.5026 0.1269,-1.4014 -0.0477,-1.862 -0.106,-0.2794 -0.551,-0.5094 -0.5362,-0.8236 0.0104,-0.222 0.3054,-0.3735 0.3217,-0.6803 0.0142,-0.2684 -0.0293,-0.9655 -0.143,-1.1936 -0.2194,-0.4404 -0.6512,-0.5007 -0.8699,-0.9071l-0.0715 -0.7043 0 0c-0.6141,-0.2296 -1.3429,-0.1895 -2.002,-0.4535 -0.6329,-0.2534 -1.0196,-0.7446 -1.5134,-1.1817 -0.9495,-0.8407 -2.8377,-1.9481 -4.1233,-2.1126 -0.9592,-0.1228 -2.6506,-0.3162 -3.5869,-0.179 -1.3095,0 -1.9411,-0.0946 -3.0388,-0.6446 -0.0748,-0.1311 -0.3912,-0.1767 -0.5124,-0.2984 -3.9227,-1.3057 -8.0819,-3.7705 -12.453,-3.0197l-4.5054 -0.0592 0 0 0.0803 1.8807 0.2075 0.3747 -0.0131 0.4506 -0.0529 0.575 0.2209 1.1228 0.1791 0.2568 0 0 0.9401 1.9036c0.0861,0.7342 0.7345,2.0504 1.2989,2.5304 0.631,0.5365 0.5617,1.0383 0.7627,1.8023 0.1554,0.5903 0.2506,0.8279 0.6674,1.2771 0.4075,0.439 -0.3018,1.2367 0.6077,1.862 0.1285,0.0884 0.1637,0.2616 0.2622,0.3819 0.4288,0.5233 1.0648,0.0572 1.1678,1.0981 0.0447,0.5372 0.9943,1.6568 1.2751,2.2201 0.1105,0.2219 0.2294,0.5155 0.4409,0.6684 0.193,0.1394 0.7098,-0.0582 0.7627,0.0477 0.0487,0.0098 0.0229,0.0276 0.0477,0.0359 0,0.8692 0.1468,1.924 0.2741,2.7929 0.0724,0.4938 0.4671,0.6257 0.5958,1.0146 0.0543,0.1641 -0.0632,0.3306 0.0358,0.5132 0.1709,0.3155 0.39,0.2632 0.6316,0.4774 0.0993,0.3688 0.6511,1.0547 0.8699,1.4323 0.4681,0.8074 1.3865,1.0584 1.9424,1.9217l1.0606 1.6472c0.2694,0.4182 0.2485,0.9381 0.6673,1.2771 0.3628,0.2936 0.9333,1.2938 1.3824,1.3368 0.5491,0.0527 1.175,-0.5371 1.8113,-0.5371l0 0c1.4918,-0.3516 3.0672,-0.9807 4.5999,-1.0384 1.5875,-0.0597 2.9778,-0.7252 4.3139,-1.5278 0.3594,-0.1029 0.7681,-0.6087 1.1083,-0.6087 0.0791,0.3193 0.281,0.8701 0.5481,1.0861 0.2304,0.1862 0.4456,-0.2312 0.6435,-0.4058 0.5017,-0.4424 1.0138,-0.9559 1.6088,-1.2533 0.5984,-0.2992 0.7643,0.3632 0.9057,0.8236l0 0 5.2195 0.0478 0 0z"/>
  <path onmouseover="hoverDepartment(evt)" onmouseout="outDepartment(evt)" class="fil0 str0" d="M91.0216 246.398l0.8223 0.0119 -0.0715 -2.8885c-0.1102,-0.4826 -0.4833,-0.8672 -0.5959,-1.4084 -0.1635,-0.7863 -0.1391,-1.6627 -0.4528,-2.3752 -0.3382,-0.7683 0.6763,-0.6863 -0.2622,-1.301 -0.888,-0.5815 -1.6567,-1.0375 -2.145,-2.0172 -0.5226,-1.0488 -0.7021,-2.3487 -1.287,-3.3897 0.0136,-0.5026 0.1269,-1.4014 -0.0477,-1.862 -0.106,-0.2794 -0.551,-0.5094 -0.5362,-0.8236 0.0104,-0.222 0.3054,-0.3735 0.3217,-0.6803 0.0142,-0.2684 -0.0293,-0.9655 -0.143,-1.1936 -0.2194,-0.4404 -0.6512,-0.5007 -0.8699,-0.9071l-0.0715 -0.7043 0 0c0.4681,-0.4524 0.875,-1.5202 1.144,-2.1245 0.4264,-0.9582 1.2351,-1.5295 1.6803,-2.423 0.2569,-0.5155 -0.0856,-0.9138 -0.1073,-1.3965 -0.0337,-0.7498 -0.0399,-1.0367 0.2026,-1.7665l0.286 -0.6206 9.7302 0.0477 0 0 -0.0538 1.862c0.9038,0.2231 0.5018,0.9264 0.6197,1.6949 0.0739,0.4812 0.0313,0.6666 0.3456,1.0503 0.2638,0.3219 0.6947,0.6115 1.001,0.9191 0.1331,0.0601 0.1767,0.147 0.3098,0.2029 0.1745,0.0732 0.2983,0.1491 0.4529,0.2387 0.0799,0.0462 0.1378,0.1212 0.143,0.2148 0.0115,0.2068 0.0102,0.3563 0.1668,0.5133 0.1261,0.1263 0.1549,0.3089 0.1549,0.4893l0.0239 2.3395 -2.014 0.0716 0.0477 7.1973 0.4528 0.3342 0.1669 1.1816 0.4051 3.533 -1.2989 1.1936 0.7984 1.48 0.0358 1.2175 -1.2989 0.8713 -0.7031 2.9601 1.1678 0.9668 -0.0477 3.2107 -0.1549 2.7811 1.0725 0.8235 0.9415 -0.0119 0.2621 0.6684 -0.3336 0.8236 0.0119 1.6113 -1.1321 0.5252 -1.1083 1.8261 0.3933 1.8024c0.1182,0.1635 0.2422,0.5089 0.3098,0.7042 0.0347,0.1001 -0.5064,0.8316 -0.572,1.0623l0 0 -3.7657 -0.6565 -0.9176 -3.1153 -0.4052 -3.7359 -3.1698 -5.0846 0.0953 -5.944 0 0z"/>
  <path onmouseover="hoverDepartment(evt)" onmouseout="outDepartment(evt)" class="fil0 str0" d="M88.5548 269.911l2.586 2.8407 0 0c-1.005,0 -3.2976,-0.1773 -4.0875,0.5132 -1.34,0.1689 -3.3479,0.3541 -4.6833,0.1313l0 0 1.2751 -2.22 4.9097 -1.2652 0 0z"/>
  <path onmouseover="hoverDepartment(evt)" onmouseout="outDepartment(evt)" class="fil0 str0" d="M85.8021 246.35l5.2195 0.0478 0 0 -0.0953 5.944 3.1698 5.0846 0.4052 3.7359 0.9176 3.1153 3.7657 0.6565 0 0c-0.1085,0.382 -0.4691,0.546 -0.7984,0.6803 -0.3084,0.1259 -0.4596,0.9932 -0.0953,1.1578 0.8806,0.398 0.2759,0.8196 0.0119,1.3487 -0.1269,0.1861 -0.1559,0.264 -0.1192,0.4774 0.0837,0.4875 0.0772,1.0322 0.1311,1.5457l0.0655 2.104 0 0 -1.2214 0.0982c-1.8472,0.3688 -4.1206,0.4058 -6.018,0.4058l0 0 -2.586 -2.8407 0 0 0.286 -2.7214 -1.8709 -1.1458 -0.3694 -5.025c0.0897,-0.2694 0.4557,-1.1844 0.3575,-1.4204 -0.2022,-0.4862 -0.0814,-0.4053 0.1549,-0.7161 0.32,-0.4207 -0.5372,-0.7921 -0.0953,-1.4084 0.2888,-0.4026 -0.0775,-0.6966 -0.2026,-0.9191 -0.1394,-0.2477 0.012,-0.5158 -0.1311,-0.7758 -0.173,-0.3141 -0.4647,-0.7773 -0.4647,-1.1697 0,-0.3599 0.2025,-0.4006 0.2025,-0.6326 0,-0.3736 -0.1499,-0.7857 -0.0953,-1.1339 -0.0875,-0.4539 -0.2447,-0.5027 -0.6792,-0.5371 -0.3731,-0.0296 -0.7647,-0.0986 -0.6436,-0.5371 0.0941,-0.3406 -0.0467,-0.3812 -0.3217,-0.5491 -0.5279,-0.3221 0.6279,-0.5868 -0.0238,-1.0384 -0.1147,-0.0795 -0.3313,-0.162 -0.3695,-0.3103 -0.1022,-0.3965 -0.1473,-0.3331 -0.3694,-0.6326 -0.0971,-0.1308 -0.1036,-0.567 -0.0119,-0.6923 0.1962,-0.2683 0.6783,-0.2439 0.8818,-0.5729 0.2006,-0.3241 0.2726,-0.7885 0.5005,-1.0504l0.5125 -0.5729 0 0z"/>
  <path onmouseover="hoverDepartment(evt)" onmouseout="outDepartment(evt)" class="fil0 str0" d="M69.5357 259.945l-0.0954 0.6445c-0.0681,0.3029 -0.6098,0.3248 -0.8341,0.5491 -0.6667,0.6667 -0.2746,3.0658 -0.1073,3.9388 0.3143,1.6407 -0.3798,2.9668 -1.0725,4.3566 -0.1692,0.9615 -0.6141,2.1143 -0.3813,3.1033 0.1135,0.4822 0.6563,0.1926 0.7507,0.6564 0.1133,0.5568 -0.1149,1.4652 -0.013,2.0115l0 0 -11.01 2.1303c-0.6831,0.1322 -2.4184,0.69 -3.0507,0.5967l0 0c0.0746,-0.6777 0.4131,-0.3737 0.7865,-0.4893 0.4861,-0.1506 0.9853,-0.1417 1.4419,-0.37 0.841,-0.4204 2.2018,-0.6012 3.1342,-0.7878 0.3611,-0.0723 1.7821,0.0067 1.6226,-0.5571 -0.1519,-0.2182 -0.1754,-0.5636 -0.3476,-0.7558 -0.2598,-0.29 -0.1191,-0.2966 -0.1191,-0.6446 0,-0.4735 -0.4648,-0.6379 -0.4648,-1.1219 0,-0.7699 -0.3386,-1.1654 -0.5481,-1.8501 -0.1089,-0.3562 0.2749,-0.799 0,-1.0384 -0.3305,-0.2878 -0.7263,-0.127 -0.8104,-0.5849 -0.1352,-0.7366 -0.0552,-0.912 -0.5243,-1.4919 -0.5541,-0.685 0.0447,-0.8833 -1.1798,-0.8833 -1.3956,0 0.4689,-2.575 -1.1082,-2.6497 -0.8952,-0.0423 0.0626,-1.3104 -0.9534,-0.8594 -0.5255,0.2332 -0.4825,0.075 -0.6912,-0.3939 -0.1745,-0.3922 -0.9382,-0.048 -1.0248,-0.7042 -0.0894,-0.6771 -0.5328,-1.0014 -0.2622,-1.5994 0.0692,-0.1531 -0.05,-0.8298 -0.286,-0.8474 -0.4991,-0.0374 -0.2587,-0.0851 -0.4528,-0.4536 -0.1055,-0.2004 -0.5026,0.0261 -0.5959,-0.0597 -0.1972,-0.1813 -0.0449,-0.5865 0.1073,-0.7519 0.3334,-0.3623 0.2885,-0.6159 0.4648,-1.0384 0.0209,-0.05 0.0451,-0.094 0.0721,-0.1328l0 0 1.0242 0.0015c1.0705,-0.3572 2.4898,-1.3747 3.5274,-1.9336 1.3608,-0.7331 3.6124,-1.194 5.148,-1.313 0.7968,-0.0618 2.4711,1.3568 2.8481,2.0649 0.3512,1.3664 1.63,1.2165 2.6813,1.7426 0.8856,0.4433 1.5229,1.0056 2.3238,1.5159l0 0z"/>
  <path onmouseover="hoverDepartment(evt)" onmouseout="outDepartment(evt)" class="fil0 str0" d="M69.5357 259.945l-0.0835 -1.0384c0.2031,-0.7226 0.976,-1.2112 0.7746,-2.0172 -0.215,-0.86 -0.4698,-0.9441 -0.143,-1.8381 0.3625,-0.9919 0.6555,-1.7112 0.6555,-2.8049 0,-1.3579 1.7041,-0.6262 1.573,-2.3514l-0.2384 -0.6206 0 0c1.4918,-0.3516 3.0672,-0.9807 4.5999,-1.0384 1.5875,-0.0597 2.9778,-0.7252 4.3139,-1.5278 0.3594,-0.1029 0.7681,-0.6087 1.1083,-0.6087 0.0791,0.3193 0.281,0.8701 0.5481,1.0861 0.2304,0.1862 0.4456,-0.2312 0.6435,-0.4058 0.5017,-0.4424 1.0138,-0.9559 1.6088,-1.2533 0.5984,-0.2992 0.7643,0.3632 0.9057,0.8236l0 0 -0.5125 0.5729c-0.2279,0.2619 -0.2999,0.7263 -0.5005,1.0504 -0.2035,0.329 -0.6856,0.3046 -0.8818,0.5729 -0.0917,0.1253 -0.0852,0.5615 0.0119,0.6923 0.2221,0.2995 0.2672,0.2361 0.3694,0.6326 0.0382,0.1483 0.2548,0.2308 0.3695,0.3103 0.6517,0.4516 -0.5041,0.7163 0.0238,1.0384 0.275,0.1679 0.4158,0.2085 0.3217,0.5491 -0.1211,0.4385 0.2705,0.5075 0.6436,0.5371 0.4345,0.0344 0.5917,0.0832 0.6792,0.5371 -0.0546,0.3482 0.0953,0.7603 0.0953,1.1339 0,0.232 -0.2025,0.2727 -0.2025,0.6326 0,0.3924 0.2917,0.8556 0.4647,1.1697 0.1431,0.26 -0.0083,0.5281 0.1311,0.7758 0.1251,0.2225 0.4914,0.5165 0.2026,0.9191 -0.4419,0.6163 0.4153,0.9877 0.0953,1.4084 -0.2363,0.3108 -0.3571,0.2299 -0.1549,0.7161 0.0982,0.236 -0.2678,1.151 -0.3575,1.4204l0.3694 5.025 1.8709 1.1458 -0.286 2.7214 0 0 -4.9097 1.2652 -1.2751 2.22 0 0c-4.8359,0 -9.7263,0.9099 -14.4312,1.7785l-0.156 0.0301 0 0c-0.1019,-0.5463 0.1263,-1.4547 0.013,-2.0115 -0.0944,-0.4638 -0.6372,-0.1742 -0.7507,-0.6564 -0.2328,-0.989 0.2121,-2.1418 0.3813,-3.1033 0.6927,-1.3898 1.3868,-2.7159 1.0725,-4.3566 -0.1673,-0.873 -0.5594,-3.2721 0.1073,-3.9388 0.2243,-0.2243 0.766,-0.2462 0.8341,-0.5491l0.0954 -0.6445 0 0z"/>
  <path onmouseover="hoverDepartment(evt)" onmouseout="outDepartment(evt)" class="fil0 str0" d="M69.5357 259.945l-0.0835 -1.0384c0.2031,-0.7226 0.976,-1.2112 0.7746,-2.0172 -0.215,-0.86 -0.4698,-0.9441 -0.143,-1.8381 0.3625,-0.9919 0.6555,-1.7112 0.6555,-2.8049 0,-1.3579 1.7041,-0.6262 1.573,-2.3514l-0.2384 -0.6206 0 0c-0.6363,0 -1.2622,0.5898 -1.8113,0.5371 -0.4491,-0.043 -1.0196,-1.0432 -1.3824,-1.3368 -0.4188,-0.339 -0.3979,-0.8589 -0.6673,-1.2771l-1.0606 -1.6472c-0.5559,-0.8633 -1.4743,-1.1143 -1.9424,-1.9217 -0.2188,-0.3776 -0.7706,-1.0635 -0.8699,-1.4323 -0.2416,-0.2142 -0.4607,-0.1619 -0.6316,-0.4774 -0.099,-0.1826 0.0185,-0.3491 -0.0358,-0.5132 -0.1287,-0.3889 -0.5234,-0.5208 -0.5958,-1.0146 -0.1273,-0.8689 -0.2741,-1.9237 -0.2741,-2.7929 -0.0248,-0.0083 0.001,-0.0261 -0.0477,-0.0359 -0.0529,-0.1059 -0.5697,0.0917 -0.7627,-0.0477 -0.2115,-0.1529 -0.3304,-0.4465 -0.4409,-0.6684 -0.2808,-0.5633 -1.2304,-1.6829 -1.2751,-2.2201 -0.103,-1.0409 -0.739,-0.5748 -1.1678,-1.0981 -0.0985,-0.1203 -0.1337,-0.2935 -0.2622,-0.3819 -0.9095,-0.6253 -0.2002,-1.423 -0.6077,-1.862 -0.4168,-0.4492 -0.512,-0.6868 -0.6674,-1.2771 -0.201,-0.764 -0.1317,-1.2658 -0.7627,-1.8023 -0.5644,-0.48 -1.2128,-1.7962 -1.2989,-2.5304l-0.9401 -1.9036 0 0 -0.2208 0.7816 -0.281 3.6882 -0.0592 18.3142 -3.9019 0.0082c0.1944,0.3387 0.3487,0.6745 0.3861,1.0017 0.0814,0.7132 0.252,1.6247 0.6554,2.2319 0.2497,0.3759 0.871,0.4909 1.2393,0.7878 0.4478,0.361 -0.1191,1.1529 -0.1191,1.7188 0,0.3272 -0.2309,0.5958 -0.0239,0.8832 0.4857,0.6744 -0.5961,1.084 -0.1072,1.3846 0.4549,0.2797 0.2093,0.4405 0.429,0.8355 0.3122,0.5612 0.9822,1.2051 0.4886,1.9455 -0.2913,0.437 -0.8111,0.3394 -1.0719,0.7147l0 0 1.0242 0.0015c1.0705,-0.3572 2.4898,-1.3747 3.5274,-1.9336 1.3608,-0.7331 3.6124,-1.194 5.148,-1.313 0.7968,-0.0618 2.4711,1.3568 2.8481,2.0649 0.3512,1.3664 1.63,1.2165 2.6813,1.7426 0.8856,0.4433 1.5229,1.0056 2.3238,1.5159l0 0z"/>
  <path onmouseover="hoverDepartment(evt)" onmouseout="outDepartment(evt)" class="fil0 str0" d="M73.5159 116.309l-0.9415 1.0623c-0.0435,0.4675 -0.0587,1.3071 0.3099,1.6233 0.65,0.5578 -0.1584,1.1299 -0.2741,1.85 -0.193,1.2005 0.6533,1.8884 0.0477,3.1034 -0.4025,1.2086 -0.6078,2.2889 -0.6078,3.5807 0,0.5394 0.5093,1.0541 0.6078,1.5636 0.1229,0.6353 0.1786,1.3365 0.5124,1.9097l2.3238 2.7214 -0.6555 6.0634 -0.7269 5.4785c-0.5307,1.5121 -1.5949,1.6182 -3.0626,1.4084 -1.5639,-0.2235 -3.0167,0.361 -3.4082,2.0291l0.2622 6.8034 3.0507 2.7214c-0.4265,0.8543 -0.8072,2.0882 -0.9534,3.0436 -0.2119,1.385 -0.1549,2.6506 -0.1549,4.0582 0.0437,1.594 1.1291,2.5473 2.5025,3.0794 0.7214,0.2794 1.4837,0.4005 2.2285,0.6207 0.4642,0.1373 1.5594,0.3277 1.9066,0.6326 0.2766,0.0342 0.6049,0.3562 0.7866,0.5371 0,0.2875 -0.0506,0.3068 -0.143,0.5848l-0.4903 0.7636 0 0c0,0.3416 -0.0456,0.6619 0.097,0.9671 0.1163,0.2489 0.3221,0.5253 0.4171,0.7759 0.2492,0.6574 0.1015,1.465 0.2741,2.1603 0.1052,0.4237 0.4259,0.6786 0.5243,1.0981 0.0946,0.4028 0.2314,1.4502 0.1192,1.8381 0.3301,1.0488 -0.8307,2.5066 -0.6078,3.736 0.0629,0.3468 0.402,0.5909 0.4409,0.7877 0.0334,0.0133 0.0578,0.0504 0.0954,0.0597 0,0.3298 -1.5869,0.4625 -1.7995,0.3461 -0.1557,-0.0853 -0.4447,-0.3027 -0.5958,-0.3461 -0.8558,-0.2457 -0.7026,1.9238 -1.8828,0.6445 -0.59,-0.6394 -1.5085,-0.7877 -2.3596,-0.7877 -1.0889,0 -2.546,0.3071 -2.8123,-1.0384 -0.4009,-0.101 -0.9868,-0.2252 -1.3466,-0.4894 -0.6601,-0.4849 -0.3109,-0.4778 -1.3109,-0.6923 -0.3804,0.1268 -1.0129,0.1621 -1.0129,-0.3461 0,-0.2913 -0.5785,-0.3158 -0.8223,-0.4178 -0.7298,-0.3052 -1.5927,-0.6378 -2.0973,-1.2652 -0.3604,-0.4483 -0.4659,-0.6647 -1.0368,-0.7997 -0.5662,-0.134 -1.5142,-0.2877 -2.0854,-0.2506l-1.573 1.1577 -4.0332 -0.1434 0 0 0.1488 -9.7159c-0.0886,-0.594 -0.0007,-1.2262 -0.0238,-1.8261 -0.0178,-0.4609 -0.3857,-0.8833 -0.3575,-1.3368l-0.0715 -5.1443c-0.0072,-0.5212 -0.1705,-0.6719 -0.2741,-1.1219 -0.0499,-0.2167 -0.0119,-0.4477 -0.0119,-0.6684 0,-0.7766 -0.4563,-1.1374 -0.792,-1.737 -0.4754,-0.8159 -0.7072,-1.4926 -1.5556,-1.9869 -0.8793,-0.5122 -1.6631,-1.3211 -2.2761,-2.0887 -0.4595,-0.5752 -0.7716,-1.2753 -1.2513,-1.8142 -0.7177,-0.8061 -1.2729,-1.5697 -2.1211,-2.2678 -0.5127,-0.8341 -0.7363,-2.128 -0.8699,-3.0794 -0.1149,-0.819 0.2066,-1.7372 0.0596,-2.5065 -0.0849,-0.4447 -0.3093,-1.0704 -0.2914,-1.498l-0.2622 -0.376 -0.3877 0.4641 -0.4294 0.1843 -1.1324 -2.6417 1.1678 -2.1484c0.0286,-0.4337 0.0477,-0.8389 0.0477,-1.2771 0,-0.2419 -0.0952,-0.589 -0.012,-0.7759 0.0958,-0.2154 0.2315,-0.2452 0.1907,-0.5132 -0.0297,-0.1948 -0.2762,-0.6488 -0.3932,-0.8116l0.1191 -2.5662c0.0263,-0.5678 -0.037,-1.1662 0.0477,-1.7188 0.1187,-0.775 0.6312,-1.4881 -0.2029,-2.0529l-0.2383 -7.0899 0 0 9.915 -0.382c2.0732,0.3114 4.7776,-2.5377 5.2196,-4.3207l0.0119 -0.0119c0.8229,0 2.0898,-0.6596 2.86,-0.4655l1.7041 1.2174c0.6765,0.4832 1.0246,0.4156 1.9663,0.3223 1.7763,-0.0865 3.4778,-0.5949 5.303,-0.561l4.4807 0.0835 0 0z"/>
  <path onmouseover="hoverDepartment(evt)" onmouseout="outDepartment(evt)" class="fil0 str0" d="M53.9477 218.91l4.5054 0.0592c4.3711,-0.7508 8.5303,1.714 12.453,3.0197 0.1212,0.1217 0.4376,0.1673 0.5124,0.2984 1.0977,0.55 1.7293,0.6446 3.0388,0.6446 0.9363,-0.1372 2.6277,0.0562 3.5869,0.179 1.2856,0.1645 3.1738,1.2719 4.1233,2.1126 0.4938,0.4371 0.8805,0.9283 1.5134,1.1817 0.6591,0.264 1.3879,0.2239 2.002,0.4535l0 0c0.4681,-0.4524 0.875,-1.5202 1.144,-2.1245 0.4264,-0.9582 1.2351,-1.5295 1.6803,-2.423 0.2569,-0.5155 -0.0856,-0.9138 -0.1073,-1.3965 -0.0337,-0.7498 -0.0399,-1.0367 0.2026,-1.7665l0.286 -0.6206 9.7302 0.0477 0 0 0.0773 -2.6736c0.0288,-0.5259 0.1925,-1.1077 0.3218,-1.6114 0.1149,-0.448 0.0577,-0.7132 -0.0477,-1.1577 -0.0623,-0.2625 0.1192,-0.4144 0.1192,-0.6207 -0.218,-0.0722 -0.5491,-0.5828 -0.7031,-0.7758 -0.3412,-0.4278 -0.5212,-1.1698 -0.9353,-1.5099l-0.6003 -1.1509c0.0465,-0.066 0.0818,-0.1667 0.1056,-0.3232 0.0202,-0.1326 -0.0718,-0.7194 0.2383,-0.6326 0.6006,0.1683 0.2145,-0.5567 0.2145,-0.7161 0,-0.1921 0.3492,-0.0998 0.4171,-0.3581 0.033,-0.1259 -0.0448,-0.3405 -0.1549,-0.4058 -0.0273,-0.0162 -0.0298,-0.0842 0,-0.0955 0.6537,-0.2481 0.5273,-2.5184 0.7031,-3.0436 0.1462,-0.4368 0.2043,-0.9345 0.3813,-1.3368 0.1216,-0.2763 0.3213,-0.63 0.3933,-0.9191 0.0868,-0.3481 -0.0952,-0.2649 -0.1788,-0.5371 -0.1453,-0.4731 0.8754,-0.7586 0.1668,-1.1578 -0.1755,-0.0988 -0.0081,-0.8618 -0.0238,-1.11 -0.0243,-0.3829 0.4337,-0.2998 0.5839,-0.5252 0.2459,-0.3689 0.3017,-0.766 0.429,-1.1816 0.1371,-0.4478 -0.2795,-0.7481 -0.1906,-1.2294 0.1846,-0.9993 -0.4928,-0.9171 -0.9772,-1.5159 -0.6866,-0.8488 -0.4839,-1.9738 -1.0844,-2.8049 -0.5403,-0.7477 0.0238,-0.435 0.0238,-1.0026 0,-0.2259 -0.1688,-0.5346 -0.2145,-0.7758 -0.0527,-0.2783 0.35,-0.6312 0.5363,-0.8236 0.8561,-0.8844 -0.4311,-1.7595 0.0119,-2.3991 0.4383,-0.6328 1.1072,0.1192 1.4777,-0.7877 0.0928,-0.2273 -0.0477,-0.3172 -0.0477,-0.5371 0,-0.2717 0.7565,-0.5021 0.6077,-0.8714 -0.0792,-0.1966 -0.3983,-0.4344 -0.0834,-0.5013 0.7465,-0.1587 0.0126,-0.6998 0.3933,-1.0264 0.4932,-0.4231 -0.7824,-0.2675 -0.5244,-0.943 0.2762,-0.7231 0.4575,-1.0517 0.1192,-1.7307 -0.3092,-0.6205 -0.1513,-0.624 -0.0357,-1.2293 0.0607,-0.3184 -0.1551,-0.5697 -0.143,-0.8833 0.0254,-0.6542 0.6202,-0.8363 -0.286,-1.0265 -1.0075,-0.2115 0.4693,-0.5999 0.3217,-0.9071 -0.0888,-0.1849 -0.6989,-0.1751 -0.4648,-0.4655 0.1531,-0.1899 0.8873,-0.5976 0.7389,-0.7042 -0.2072,-0.1489 -0.5601,-0.0276 -0.6078,-0.3223 -0.0287,-0.1777 0.1571,-0.3803 0.2265,-0.5371 0.1133,-0.2561 -0.012,-0.316 -0.012,-0.5371 0,-0.4612 -0.291,-0.7142 -0.3813,-1.1578 -0.0146,-0.0718 -0.0533,-0.1533 -0.0969,-0.2377l0 0 -22.7969 -0.2281 0 0c0,0.3416 -0.0456,0.6619 0.097,0.9671 0.1163,0.2489 0.3221,0.5253 0.4171,0.7759 0.2492,0.6574 0.1015,1.465 0.2741,2.1603 0.1052,0.4237 0.4259,0.6786 0.5243,1.0981 0.0946,0.4028 0.2314,1.4502 0.1192,1.8381 0.3301,1.0488 -0.8307,2.5066 -0.6078,3.736 0.0629,0.3468 0.402,0.5909 0.4409,0.7877 0.0334,0.0133 0.0578,0.0504 0.0954,0.0597 0,0.3298 -1.5869,0.4625 -1.7995,0.3461 -0.1557,-0.0853 -0.4447,-0.3027 -0.5958,-0.3461 -0.8558,-0.2457 -0.7026,1.9238 -1.8828,0.6445 -0.59,-0.6394 -1.5085,-0.7877 -2.3596,-0.7877 -1.0889,0 -2.546,0.3071 -2.8123,-1.0384 -0.4009,-0.101 -0.9868,-0.2252 -1.3466,-0.4894 -0.6601,-0.4849 -0.3109,-0.4778 -1.3109,-0.6923 -0.3804,0.1268 -1.0129,0.1621 -1.0129,-0.3461 0,-0.2913 -0.5785,-0.3158 -0.8223,-0.4178 -0.7298,-0.3052 -1.5927,-0.6378 -2.0973,-1.2652 -0.3604,-0.4483 -0.4659,-0.6647 -1.0368,-0.7997 -0.5662,-0.134 -1.5142,-0.2877 -2.0854,-0.2506l-1.573 1.1577 -4.0332 -0.1434 0 0 -0.0426 2.7813 1.5852 2.041 -0.5601 1.1578 -0.4648 0.5609 -0.4333 0.4648 -0.0032 -0.0505c0.0369,0.357 -0.2488,0.6531 -0.1355,1.2448 0.1373,0.7172 -0.0566,1.3055 -0.4051,1.9217l0.9173 0.5132 0.1192 21.2219c0.1223,0.6879 0.4173,1.3775 0.4173,2.0768 0,0.8773 -0.5711,1.6691 -0.4409,2.5423l0.166 3.8916 0 0z"/>
  <path onmouseover="hoverDepartment(evt)" onmouseout="outDepartment(evt)" class="fil0 str0" d="M79.8792 96.6509l1.9783 0.8116 4.3377 0.191 1.5731 -1.5039 2.5025 0.2148 0.9295 1.1459 1.4777 1.1935 4.8859 0.191 2.1689 -2.8168 5.577 0.1432 0 1.1458 1.4062 1.0742 4.5284 -0.2625 4.0517 -0.7162 2.6456 -0.9549 3.7895 -0.7638 3.0984 -1.2414 1.6922 0.4775 2.0259 -0.5252 3.718 -0.1432 3.0031 -0.7162 2.9077 -0.2148 2.86 0.3819 1.7637 -1.0026 2.2759 -0.6445 0 0 -0.1906 -1.5039 -0.9176 -0.8236 -0.8938 -0.0358 -0.3932 -0.5849 -0.143 -0.9429 -0.3695 -1.3846 -0.9414 -1.1816 0.0119 -1.1339 0.9772 -3.3659 -0.6435 -3.6524 -1.5015 -0.8235c-0.0635,-0.5783 0.1483,-1.1335 0.0357,-1.7546 -0.1122,-0.6195 -0.1724,-1.0074 -0.0715,-1.6352 0.0472,-0.2943 0.2396,-0.6923 0.1788,-0.9907 -0.0997,-0.4899 -0.8958,-0.3248 -1.3109,-0.4416l-5.8869 -4.2611 -2.2521 -2.1723 3.0269 -13.5591 1.3578 -2.7631 0.7043 -0.7487 0 0c-0.504,-0.4821 -1.6271,-0.5536 -2.1576,-0.9521 -0.915,-0.6873 -0.1862,-1.0019 0.0834,-1.7307 0.506,-1.3679 -2.2451,-0.3364 -1.9067,-2.1007 0.069,-0.3596 -0.2909,-0.4901 -0.4647,-0.7401 -1.0717,-1.5415 -2.0954,-2.0768 -3.9683,-2.0768 -0.2236,0 -0.4172,-0.069 -0.6048,-0.1508 -0.2743,-0.1195 -0.5362,-0.2669 -0.861,-0.2669 -0.5821,0 -0.9463,0.1921 -1.4896,0.0238 -0.8108,-0.2512 -0.5913,0.2697 -1.3466,-0.549 -0.5981,-0.6483 -0.1726,-1.1774 -1.001,-1.6233 -0.084,-0.0452 -0.1292,-0.1215 -0.1678,-0.1861 -0.209,-0.3497 0.0315,-0.7715 -0.1301,-1.1388 -0.1906,-0.433 -0.7246,-0.5295 -0.8461,-1.0026 -0.1353,-0.5267 1.091,-1.1253 -0.1668,-1.5636 -0.7937,-0.2765 -0.6099,-0.5372 -1.1083,-1.0742 -0.6735,-0.7256 -1.3497,-0.8679 -1.9186,-1.7904 -0.3543,-0.5745 -0.6666,-0.7488 -1.1797,-1.11 -0.3431,-0.2415 -1.0027,-0.4873 -1.1798,-0.8952 -0.177,-0.4078 0.2298,-0.4115 -0.2622,-0.7519 -0.7167,-0.4959 -1.6368,-0.6694 -2.2761,-1.2652 -0.3949,-0.3681 -0.2462,-0.8668 -0.5362,-1.1578 -0.4532,-0.4547 -0.8881,-0.8786 -1.2155,-1.4323 -0.5608,-0.9483 -1.2286,-0.755 -2.0021,-1.3607 -0.2185,-0.171 -0.4571,-0.3193 -0.6554,-0.5132 -0.304,-0.2972 -0.4391,-0.7375 -0.7627,-1.0384 -0.2621,-0.2437 -0.5638,-0.4281 -0.8222,-0.6684 -0.6053,-0.5629 -1.0411,-0.9101 -1.5254,-1.6114 -0.3578,-0.5181 -0.6901,-0.5452 -1.1559,-0.8951 -0.1869,-0.1404 -0.3737,-0.3762 -0.572,-0.4775 -0.4098,0.2049 -1.5596,0.6293 -1.9186,0.931 -0.3643,0.306 -0.8052,0.5749 -0.9891,1.0384 -0.5354,1.3492 -1.1947,-0.8102 -1.5492,0.1671 -0.1616,0.4457 -0.5778,0.9076 -0.7746,1.3607 -0.1389,0.3198 -0.5912,2.285 -1.1678,2.0291 -0.1155,-0.0512 -0.0307,-0.4932 -0.0715,-0.6087 -0.2923,-0.8263 -2.2281,-0.1295 -2.9196,-0.1074 -1.1116,0.0356 -0.6248,0.1031 -1.3824,0.6803 -0.2897,0.2207 -0.5617,-0.0711 -0.8937,0.0119 -0.6066,0.1518 -0.2846,0.2865 -0.7627,-0.0597 -0.1627,-0.1178 -0.8309,-0.4184 -0.9653,-0.2148 -0.31,0.4694 -0.2733,1.2228 -1.0844,0.752 -1.2106,-0.7027 -0.6313,0.5981 -1.2274,0.6326 -0.2865,0.0165 -0.5155,-0.4246 -0.715,-0.3581 -0.4013,0.134 -0.3645,0.4416 -0.8819,0.4416 -0.4095,0 -0.7719,-0.4338 -1.1797,-0.2626 -0.4182,0.1756 -0.8374,0.5768 -0.4886,0.931 0.6894,0.7001 0.7253,0.4941 -0.2026,1.0146 -0.3695,0.2072 0.6637,0.7947 0.7508,0.9429 0.1996,0.3396 -0.4648,0.4013 -0.4648,0.6684 0,0.4318 0.4429,0.5978 0.429,0.8952 -0.0083,0.1781 -0.2075,0.4592 -0.0953,0.5848 0.1562,0.1749 0.2408,0.1932 0.1191,0.4536 -0.3564,0.7624 0.2848,0.8145 0.4767,1.5875 0.1406,0.5664 0.2803,0.2605 0.5482,0.6325 0.1119,0.1554 -0.0709,0.6946 -0.0238,0.8714 0.0484,0.182 0.5462,0.0388 0.56,0.3342 0.0085,0.1828 -0.2583,0.3634 -0.0357,0.5013 0.3675,0.2278 0.2303,0.593 0.7031,0.6922 0.2711,0.0568 0.7417,1.545 0.4886,1.7785 -0.1755,0.1619 -0.2906,-0.1389 -0.429,-0.1671 -0.8323,-0.1694 -0.3562,1.3863 -0.8342,1.3129 -0.3079,-0.0472 -0.614,0.2374 -0.7269,0.0239 -0.1912,-0.3614 -0.6409,0.503 -0.7031,0.6445 -0.1303,0.2962 0.171,0.7735 0.3456,0.9907 0.0551,0.0685 0.3889,0.3406 0.3336,0.4177 -0.0978,0.1365 -0.5493,0.2732 -0.5124,0.4178l0 0c0.1051,0.4113 0.1486,0.2736 0,0.7042 -0.1508,0.4371 -0.5914,0.5118 -0.8461,0.8713 -0.4558,0.6434 0.6496,1.0592 0.1192,1.2772 -1.1144,0.4581 -0.2328,0.555 -0.1907,1.2174 0.0319,0.5031 -0.6898,0.2176 -0.9057,0.2507 -0.4985,0.0765 -0.6101,0.5344 -0.7507,0.9668 -0.0606,0.1867 -0.3754,0.2004 -0.5124,0.4296 -0.3138,0.5252 -0.6278,1.0504 -0.9415,1.5756 -0.2697,0.4513 -0.0702,0.4341 0.012,0.8355 0.0459,0.2239 0.2438,0.6591 0.4533,1.1245l-0.3278 0.2481c-0.28,0.1919 -0.4959,0.5132 -0.8818,0.5132 -0.4125,0 -0.6109,0.2297 -0.9176,0.4596l-1.9185 1.4382c-0.3246,0.2433 -0.6196,0.1778 -0.9837,0.2865l-7.0905 7.3883 0.0239 0.4296 0 0 9.6883 16.8773 2.9077 0.6326 1.3585 1.6829 -3.003 2.4349 0 0 -0.9177 1.7307 0.0952 13.0578 0 0z"/>
  <path onmouseover="hoverDepartment(evt)" onmouseout="outDepartment(evt)" class="fil0 str0" d="M79.8792 96.6509l1.9783 0.8116 4.3377 0.191 1.5731 -1.5039 2.5025 0.2148 0.9295 1.1459 1.4777 1.1935 4.8859 0.191 2.1689 -2.8168 5.577 0.1432 0 1.1458 1.4062 1.0742 4.5284 -0.2625 4.0517 -0.7162 2.6456 -0.9549 3.7895 -0.7638 3.0984 -1.2414 1.6922 0.4775 2.0259 -0.5252 3.718 -0.1432 3.0031 -0.7162 2.9077 -0.2148 2.86 0.3819 1.7637 -1.0026 2.2759 -0.6445 0 0 0.2145 3.1988 -1.0844 2.4945 -0.5243 2.0649 -0.012 1.6591 -0.6673 1.4442 -4.2662 -2.2439 -1.0248 0.6087 -0.6912 0.1433 -0.9534 0.919 0.3933 0.9788 -2.2404 5.3233 0.6078 0.8355 0.1549 0.943 0.8461 0.9668 1.3466 0.7758 1.4181 0.2745 -0.7508 2.8765 -1.5968 0.8714 -0.5124 0.74 -0.4529 1.9694 0.2503 1.9575 -0.3098 1.0026 -1.4896 1.3248 -0.0596 1.0862 -0.6316 0.7878 -1.2513 0.919c-0.4245,0 -0.8033,-0.2705 -1.2036,-0.3939 -1.2278,-0.3788 -4.1138,0.8516 -5.1838,1.5159 -1.5426,0.9576 -2.3285,2.4078 -1.1917,4.1178 0.3491,0.2497 1.2413,1.1383 0.9176,1.5398 -0.378,0.4687 -0.9904,1.2363 -1.5611,1.48 -0.7621,0.3256 -2.5553,-0.634 -2.6217,0.9071 -0.0202,0.4683 0.0713,1.254 -0.143,1.6591 -0.3715,0.7026 -0.803,1.0628 -1.2989,1.6829l-1.2393 1.9575c-0.405,0.6398 -0.9434,0.6644 -1.5373,0.8116 -0.2435,0.7431 -0.8461,1.3686 -0.8461,2.1843 0,1.166 0.2847,2.0749 0.7627,3.1272 0.0877,1.0881 0.3987,2.9073 0.143,3.9388 -0.02,0.0049 -0.0305,0.008 -0.0358,0.0239 -0.4634,0 -1.1883,1.3391 -1.287,1.7426 -0.1226,0.5009 -0.2264,1.5152 -0.2264,1.9933 -0.3285,0.1879 -0.703,1.377 -0.9057,1.7068l-0.286 1.7904 -2.0139 0.6803c-0.3728,0.4717 -1.6006,0.2472 -2.1331,0.2626 -0.5838,0.0168 -1.2777,0.319 -1.8352,0.5013 -1.0419,0.3409 -2.241,0.4328 -3.3248,0.5252 -0.468,0.0399 -1.032,0.1308 -1.4896,0 -0.4865,-0.139 -0.9528,-0.5168 -1.4657,-0.5491l-0.4962 0.0134c0.0022,0.1312 0.0018,0.2575 0.0076,0.3805 0.0157,0.3339 0.105,0.2951 0.2264,0.4655 0.0685,0.0962 -0.2514,0.4393 -0.2979,0.4894 -0.194,0.209 0.0306,0.3222 0.2502,0.3222 0.4602,0 -0.725,0.6455 -0.2621,0.7997 0.1631,0.0543 0.0209,0.3776 0.1787,0.5968 0.2175,0.3021 -0.2254,0.5289 -0.0357,0.6565 0.5822,0.3917 -0.1626,0.4552 -0.441,0.7878 -0.2548,0.3044 0.4592,0.4542 0.2741,0.8474 -0.2537,0.5388 -0.0457,0.6701 -0.7031,0.931 -0.2583,0.1025 -0.4304,0.452 -0.1906,0.6923 0.1456,0.1459 0.3909,-0.0784 0.5005,-0.0239 0.0024,0.0011 -0.0494,0.7977 -0.0239,0.9787 0.0386,0.2732 -0.0672,0.4128 -0.3455,0.4536 -0.6753,0.0991 0.1668,0.4801 0.1668,0.6207 0,0.4099 -0.3294,0.974 -0.2622,1.3248 0.0404,0.2113 0.4006,0.1858 0.3456,0.4178 -0.0944,0.398 -0.3224,0.4527 -0.6912,0.3222 -0.5886,-0.2083 -0.2071,0.6515 -0.5601,0.7997 -0.2957,0.1241 -0.1204,0.4043 0.0104,0.6575l0 0 -22.7969 -0.2281 0 0 0.4903 -0.7636c0.0924,-0.278 0.143,-0.2973 0.143,-0.5848 -0.1817,-0.1809 -0.51,-0.5029 -0.7866,-0.5371 -0.3472,-0.3049 -1.4424,-0.4953 -1.9066,-0.6326 -0.7448,-0.2202 -1.5071,-0.3413 -2.2285,-0.6207 -1.3734,-0.5321 -2.4588,-1.4854 -2.5025,-3.0794 0,-1.4076 -0.057,-2.6732 0.1549,-4.0582 0.1462,-0.9554 0.5269,-2.1893 0.9534,-3.0436l-3.0507 -2.7214 -0.2622 -6.8034c0.3915,-1.6681 1.8443,-2.2526 3.4082,-2.0291 1.4677,0.2098 2.5319,0.1037 3.0626,-1.4084l0.7269 -5.4785 0.6555 -6.0634 -2.3238 -2.7214c-0.3338,-0.5732 -0.3895,-1.2744 -0.5124,-1.9097 -0.0985,-0.5095 -0.6078,-1.0242 -0.6078,-1.5636 0,-1.2918 0.2053,-2.3721 0.6078,-3.5807 0.6056,-1.215 -0.2407,-1.9029 -0.0477,-3.1034 0.1157,-0.7201 0.9241,-1.2922 0.2741,-1.85 -0.3686,-0.3162 -0.3534,-1.1558 -0.3099,-1.6233l0.9415 -1.0623 0 0 4.2662 -0.4296c0.6487,-0.0186 1.7255,-1.0205 2.1569,-1.4801 1.0228,-1.0894 0.3038,-2.9803 -0.0596,-4.2372l-0.7388 -2.5543c-0.3435,-1.1881 -0.1852,-1.5212 -1.1321,-2.4707 -1.3737,-0.7534 -1.6891,-2.7332 -1.2036,-4.094 0.2644,-0.7414 0.937,-1.3151 1.5015,-1.8261 0.5588,-0.5057 1.3658,-0.6487 1.573,-1.4801l-0.0002 -1.0861 0 0z"/>
  <path onmouseover="hoverDepartment(evt)" onmouseout="outDepartment(evt)" class="fil0 str0" d="M73.5159 116.309l4.2662 -0.4296c0.6487,-0.0186 1.7255,-1.0205 2.1569,-1.4801 1.0228,-1.0894 0.3038,-2.9803 -0.0596,-4.2372l-0.7388 -2.5543c-0.3435,-1.1881 -0.1852,-1.5212 -1.1321,-2.4707 -1.3737,-0.7534 -1.6891,-2.7332 -1.2036,-4.094 0.2644,-0.7414 0.937,-1.3151 1.5015,-1.8261 0.5588,-0.5057 1.3658,-0.6487 1.573,-1.4801l-0.0002 -1.0861 0 0 -0.0952 -13.0578 0.9177 -1.7307 0 0 3.003 -2.4349 -1.3585 -1.6829 -2.9077 -0.6326 -9.6883 -16.8773 0 0c-0.3472,0.3821 -1.0634,-0.0324 -1.4658,-0.1432 -0.5481,-0.1508 -0.805,-0.0305 -1.2513,0.2507 -0.3451,0.2173 -0.503,-0.0322 -0.8222,-0.0836 -0.5074,-0.0816 -0.4692,0.069 -0.8842,-0.3333 -0.0163,-0.3546 -1.0669,-0.6602 -1.4277,-0.8006 -0.3515,-0.1369 -1.0549,0.2262 -1.2155,0.0955 -0.0059,-0.0047 -2.1271,0.2603 -2.3833,0.4655 -0.2741,0.2195 -1.4288,0.5526 -1.8233,0.4894 -0.4393,-0.0704 -1.2987,-0.6764 -1.6207,-0.4059 -0.5268,0.4425 -1.8514,1.5196 -2.574,1.1578 -0.6381,-0.3195 -0.7795,0.3325 -1.4777,0.3103 -0.3853,-0.0123 -0.7929,-0.3612 -0.9057,-0.6922 -0.1147,-0.3366 -0.4343,-1.2708 -0.4051,-1.3368 0.4564,-1.0332 -0.8104,-0.04 -0.8104,-0.5133 0,-0.3354 0.2635,-0.4996 0,-0.7639 -0.7361,-0.7385 -0.602,0.2428 -0.7507,0.561 -0.1786,0.3821 -1.7214,0.0689 -1.7756,-0.1193 -0.0487,-0.1691 0.3067,-0.7043 -0.0477,-0.7043 -0.4668,0 -0.2059,0.9093 -0.5243,0.9907 -0.0888,0.0226 -0.2965,-0.6127 -0.9176,-0.549 -0.5897,0.0605 -0.8012,-0.7401 -1.3228,0.0596 -0.3646,0.5589 -1.2098,0.4957 -1.6326,0.9191 -0.7131,0.7141 0.2527,1.6035 -0.1907,1.8023 -0.4885,0.2191 -0.0987,0.735 -0.7865,0.5729 -0.4916,-0.1158 -0.5516,0.0759 -0.6316,0.5491 0.0092,0.1097 -0.0533,0.2304 -0.1477,0.2924 -0.1754,0.115 -0.4237,0.0239 -0.6257,0.0239 -0.1053,0 -0.2042,-0.0197 -0.274,0.0656 -0.0726,0.0884 -0.1043,0.202 -0.0716,0.3323 -0.1402,0.4404 0.5101,1.3887 0.7496,1.6849 0.2407,0.2976 -0.7802,1.5339 -1.2036,0.8474 -0.3125,-0.5067 -0.7376,0.5169 -1.0129,-0.2387 -0.18,-0.4941 -0.6604,-1.6908 -1.2393,-0.549 -0.4478,0.8832 0.5002,1.1817 0.6792,1.8619 0.1371,0.5212 -0.371,0.8371 -0.8222,1.0265 -0.163,0.0684 -1.2851,-0.6982 -1.3347,-0.7042 -0.588,-0.0712 -1.1838,-0.0478 -1.7756,-0.0716 -0.089,-0.0035 -0.3075,0.2974 -0.4052,0.1193 -0.0548,-0.0999 -0.1865,-0.5895 -0.2145,-0.6445 -0.0778,-0.1527 -0.3806,-0.2378 -0.4767,-0.179 -0.6774,0.4149 -1.0248,0.7021 -1.0248,1.6232 0,0.7312 1.2886,0.1587 0.9891,1.1936 -0.0763,0.2635 -0.5771,0.7936 -0.1907,1.2413 0.1574,0.1823 0.7696,1.2893 0,1.0623 -1.0087,-0.2975 -0.336,-0.79 -1.7518,-0.2745 -0.3431,0.1249 -0.3898,0.686 -0.6911,0.8833 -0.21,0.1375 -0.6736,0.0248 -0.9295,0.0358 -1.0286,0.0442 -0.9083,1.2382 -0.3337,1.1458 0.2326,-0.0373 0.2148,-0.8235 0.6435,-0.3939 0.1201,0.1203 0.4552,0.9133 0.4648,1.0623 0.0149,0.2294 -0.1586,0.3713 -0.143,0.5968 0.0181,0.2617 0.429,0.2249 0.429,0.561 0,0.456 -0.1528,0.6242 0.2502,0.9668 0.151,0.1284 0.8759,0.5712 0.5005,0.8474 -0.4726,0.3477 -1.6594,-1.6738 -2.8362,-0.8235 -0.8835,0.6384 -1.0601,-0.1962 -1.2989,-0.8714 -0.1317,-0.3724 -1.4141,-0.7329 -1.5492,-0.5371 -0.1579,0.2288 0.002,0.6435 -0.0715,0.931 -0.0975,0.3814 -0.2898,0.5988 -0.5243,0.9071 -0.1474,0.1939 -0.1652,0.326 -0.1774,0.4913l-1.8127 1.3946 0 0 -1.1679 3.4375 0.6197 1.8501 -0.6554 0.5132 -0.3218 2.793 -2.6336 2.59 -0.6077 0.7162 -0.143 1.0503 0.286 4.3685c0.0881,1.0973 -0.6617,2.0024 -0.9415,2.8408l-0.2506 6.2543 11.5593 8.2357 12.4412 7.8538 0 0 9.915 -0.382c2.0732,0.3114 4.7776,-2.5377 5.2196,-4.3207l0.0119 -0.0119c0.8229,0 2.0898,-0.6596 2.86,-0.4655l1.7041 1.2174c0.6765,0.4832 1.0246,0.4156 1.9663,0.3223 1.7763,-0.0865 3.4778,-0.5949 5.303,-0.561l4.4807 0.0835 0 0z"/>
  <path class="fil1" d="M100.77 64.0288l9.9257 0c0.3491,0 0.6347,0.3109 0.6347,0.691l0 1.9124c0,0.38 -0.2856,0.6909 -0.6347,0.6909l-9.9257 0c-0.3491,0 -0.6347,-0.3109 -0.6347,-0.6909l0 -1.9124c0,-0.3801 0.2856,-0.691 0.6347,-0.691z"/>
  <path class="fil1" d="M45.5068 89.7091l11.7153 0c0.412,0 0.7491,0.3109 0.7491,0.691l0 1.9124c0,0.38 -0.3371,0.6909 -0.7491,0.6909l-11.7153 0c-0.412,0 -0.7491,-0.3109 -0.7491,-0.6909l0 -1.9124c0,-0.3801 0.3371,-0.691 0.7491,-0.691z"/>
  <path class="fil1" d="M95.1002 125.87l10.8707 0c0.3823,0 0.6951,0.3792 0.6951,0.8428l0 2.3326c0,0.4635 -0.3128,0.8427 -0.6951,0.8427l-10.8707 0c-0.3823,0 -0.6951,-0.3792 -0.6951,-0.8427l0 -2.3326c0,-0.4636 0.3128,-0.8428 0.6951,-0.8428z"/>
  <path class="fil1" d="M52.908 144.075l10.2072 0c0.359,0 0.6527,0.3568 0.6527,0.7929l0 2.1947c0,0.4361 -0.2937,0.7929 -0.6527,0.7929l-10.2072 0c-0.359,0 -0.6527,-0.3568 -0.6527,-0.7929l0 -2.1947c0,-0.4361 0.2937,-0.7929 0.6527,-0.7929z"/>
  <path class="fil1" d="M69.3717 198.394l11.7578 0c0.4135,0 0.7518,0.3109 0.7518,0.691l0 1.9124c0,0.38 -0.3383,0.6909 -0.7518,0.6909l-11.7578 0c-0.4135,0 -0.7518,-0.3109 -0.7518,-0.6909l0 -1.9124c0,-0.3801 0.3383,-0.691 0.7518,-0.691z"/>
  <path class="fil1" d="M89.6689 239.317l11.0542 0c0.3888,0 0.7069,0.3109 0.7069,0.691l0 1.9124c0,0.38 -0.3181,0.6909 -0.7069,0.6909l-11.0542 0c-0.3888,0 -0.7069,-0.3109 -0.7069,-0.6909l0 -1.9124c0,-0.3801 0.3181,-0.691 0.7069,-0.691z"/>
  <path class="fil1" d="M70.9831 234.197l6.3903 0c0.2247,0 0.4086,0.3109 0.4086,0.691l0 1.9124c0,0.38 -0.1839,0.6909 -0.4086,0.6909l-6.3903 0c-0.2247,0 -0.4086,-0.3109 -0.4086,-0.6909l0 -1.9124c0,-0.3801 0.1839,-0.691 0.4086,-0.691z"/>
  <path class="fil1" d="M55.6833 247.737l9.6819 0c0.3405,0 0.6191,0.3109 0.6191,0.691l0 1.9124c0,0.38 -0.2786,0.6909 -0.6191,0.6909l-9.6819 0c-0.3405,0 -0.6191,-0.3109 -0.6191,-0.6909l0 -1.9124c0,-0.3801 0.2786,-0.691 0.6191,-0.691z"/>
  <path class="fil1" d="M85.5774 258.718l10.3476 0c0.364,0 0.6617,0.3109 0.6617,0.691l0 1.9124c0,0.38 -0.2977,0.6909 -0.6617,0.6909l-10.3476 0c-0.364,0 -0.6617,-0.3109 -0.6617,-0.6909l0 -1.9124c0,-0.3801 0.2977,-0.691 0.6617,-0.691z"/>
  <path class="fil1" d="M70.4844 262.838l14.6322 0c0.5146,0 0.9356,0.3544 0.9356,0.7876l0 2.1799c0,0.4332 -0.421,0.7876 -0.9356,0.7876l-14.6322 0c-0.5146,0 -0.9356,-0.3544 -0.9356,-0.7876l0 -2.1799c0,-0.4332 0.421,-0.7876 0.9356,-0.7876z"/>
  <path class="fil1" d="M58.3322 263.27l8.6258 0c0.3034,0 0.5516,0.3109 0.5516,0.691l0 1.9124c0,0.38 -0.2482,0.6909 -0.5516,0.6909l-8.6258 0c-0.3034,0 -0.5516,-0.3109 -0.5516,-0.6909l0 -1.9124c0,-0.3801 0.2482,-0.691 0.5516,-0.691z"/>
  <path class="fil1" d="M72.7749 269.5l8.3351 0c0.2932,0 0.533,0.2619 0.533,0.5819l0 1.6107c0,0.3201 -0.2398,0.5819 -0.533,0.5819l-8.3351 0c-0.2932,0 -0.533,-0.2618 -0.533,-0.5819l0 -1.6107c0,-0.32 0.2398,-0.5819 0.533,-0.5819z"/>
  <path class="fil2" d="M100.555 66.831l1.4311 -2.5252 0.3981 0 0.4168 2.5252 -0.3269 0 -0.1223 -0.7267 -1.0218 0 -0.4045 0.7267 -0.3705 0zm0.9196 -0.9872l0.8355 0 -0.0982 -0.6338c-0.0376,-0.2516 -0.0612,-0.4609 -0.0706,-0.6285 -0.0576,0.1446 -0.1411,0.3163 -0.2516,0.515l-0.4151 0.7473z"/>
  <polygon id="1" class="fil2" points="103.072,66.831 103.599,64.3058 103.911,64.3058 103.383,66.831 "/>
  <path id="12" class="fil2" d="M104.322 64.6591l0.0741 -0.3533 0.3099 0 -0.0735 0.3533 -0.3105 0zm-0.4545 2.1719l0.3822 -1.8291 0.3116 0 -0.3821 1.8291 -0.3117 0z"/>
  <path id="123" class="fil2" d="M104.663 66.831l0.5274 -2.5252 0.3116 0 -0.1875 0.9025c0.0987,-0.0906 0.1881,-0.1547 0.2686,-0.1917 0.08,-0.0376 0.1641,-0.0565 0.2511,-0.0565 0.1711,0 0.314,0.0641 0.428,0.1917 0.1147,0.127 0.1717,0.3128 0.1717,0.5562 0,0.1617 -0.0229,0.3099 -0.0688,0.4445 -0.0458,0.1341 -0.1029,0.2469 -0.1705,0.3381 -0.0682,0.0917 -0.1382,0.1646 -0.2105,0.2187 -0.0723,0.0547 -0.1464,0.0958 -0.2222,0.1223 -0.0759,0.027 -0.1488,0.0406 -0.2187,0.0406 -0.1206,0 -0.2264,-0.0318 -0.3187,-0.0953 -0.0917,-0.0641 -0.1635,-0.1611 -0.2152,-0.2922l-0.0723 0.3463 -0.274 0zm0.4615 -0.7508l-0.0017 0.0582c0,0.1564 0.0376,0.2752 0.1123,0.3569 0.0746,0.0811 0.1675,0.1223 0.2787,0.1223 0.1093,0 0.2093,-0.0382 0.301,-0.1147 0.0911,-0.0764 0.1658,-0.1958 0.2246,-0.3574 0.0588,-0.1617 0.0876,-0.3111 0.0876,-0.4481 0,-0.1534 -0.037,-0.2734 -0.1111,-0.358 -0.0735,-0.0853 -0.1652,-0.1276 -0.2746,-0.1276 -0.1123,0 -0.2158,0.0435 -0.3098,0.1299 -0.0941,0.087 -0.1729,0.2205 -0.2358,0.4004 -0.0476,0.1347 -0.0712,0.247 -0.0712,0.3381z"/>
  <path id="1234" class="fil2" d="M106.68 66.1366c0,-0.3569 0.1052,-0.6526 0.3151,-0.8866 0.1735,-0.1934 0.401,-0.2899 0.682,-0.2899 0.2205,0 0.3987,0.0694 0.5333,0.207 0.1346,0.1376 0.2023,0.324 0.2023,0.558 0,0.2105 -0.0424,0.4057 -0.1276,0.5867 -0.0847,0.1805 -0.2058,0.3193 -0.3622,0.4157 -0.157,0.0964 -0.3222,0.1447 -0.4956,0.1447 -0.1423,0 -0.2717,-0.03 -0.3881,-0.0912 -0.1164,-0.0605 -0.2058,-0.147 -0.2669,-0.2581 -0.0618,-0.1117 -0.0923,-0.2405 -0.0923,-0.3863zm0.3116 -0.0305c0,0.1722 0.0417,0.3028 0.124,0.3915 0.0829,0.0888 0.1882,0.1335 0.3152,0.1335 0.067,0 0.1329,-0.0135 0.1981,-0.0406 0.0659,-0.027 0.1264,-0.0676 0.1829,-0.1229 0.0558,-0.0552 0.104,-0.1181 0.1434,-0.1887 0.04,-0.0705 0.0718,-0.1464 0.0959,-0.2281 0.0358,-0.1141 0.0535,-0.2228 0.0535,-0.3275 0,-0.1652 -0.0418,-0.2934 -0.1253,-0.3851 -0.0829,-0.0911 -0.1875,-0.1364 -0.3139,-0.1364 -0.0976,0 -0.187,0.0229 -0.267,0.0694 -0.0805,0.0464 -0.1534,0.1146 -0.2181,0.204 -0.0647,0.0899 -0.1123,0.194 -0.1429,0.3128 -0.0305,0.1187 -0.0458,0.2246 -0.0458,0.3181z"/>
  <path id="12345" class="fil2" d="M108.587 66.831l0.3828 -1.8291 0.2751 0 -0.077 0.3733c0.0941,-0.1411 0.1858,-0.2457 0.2763,-0.3133 0.09,-0.0677 0.1823,-0.1018 0.2764,-0.1018 0.0617,0 0.1381,0.0224 0.2293,0.0677l-0.1276 0.2892c-0.0541,-0.0394 -0.1135,-0.0588 -0.1776,-0.0588 -0.1087,0 -0.221,0.0612 -0.3357,0.1829 -0.1152,0.1217 -0.2052,0.3404 -0.2705,0.6561l-0.1552 0.7338 -0.2963 0z"/>
  <path id="123456" class="fil2" d="M110.205 64.6591l0.0741 -0.3533 0.3099 0 -0.0735 0.3533 -0.3105 0zm-0.4545 2.1719l0.3822 -1.8291 0.3116 0 -0.3821 1.8291 -0.3117 0z"/>
  <path class="fil2" d="M45.1893 92.562l1.4311 -2.5252 0.3981 0 0.4168 2.5252 -0.3269 0 -0.1223 -0.7267 -1.0218 0 -0.4045 0.7267 -0.3705 0zm0.9196 -0.9872l0.8355 0 -0.0982 -0.6338c-0.0376,-0.2516 -0.0612,-0.4609 -0.0706,-0.6285 -0.0576,0.1446 -0.1411,0.3163 -0.2516,0.515l-0.4151 0.7473z"/>
  <path id="1" class="fil2" d="M48.4584 92.3086l-0.0512 0.2552c-0.0746,0.0194 -0.147,0.0294 -0.2175,0.0294 -0.1235,0 -0.2223,-0.0306 -0.2958,-0.0918 -0.0552,-0.0458 -0.0829,-0.1081 -0.0829,-0.1875 0,-0.04 0.0147,-0.1323 0.0447,-0.2775l0.2223 -1.0625 -0.2464 0 0.05 -0.241 0.2463 0 0.0947 -0.4498 0.3569 -0.2152 -0.1399 0.665 0.3069 0 -0.0518 0.241 -0.3051 0 -0.2117 1.0113c-0.0264,0.1282 -0.0394,0.2052 -0.0394,0.2305 0,0.037 0.0106,0.0647 0.0318,0.0847 0.0211,0.0194 0.0558,0.0288 0.104,0.0288 0.0688,0 0.1306,-0.0065 0.1841,-0.0206z"/>
  <path id="12" class="fil2" d="M49.9435 92.3345c-0.1082,0.0929 -0.2116,0.1611 -0.3116,0.204 -0.0999,0.0435 -0.207,0.0647 -0.3204,0.0647 -0.1688,0 -0.3052,-0.0494 -0.4087,-0.1488 -0.1028,-0.0994 -0.1546,-0.2264 -0.1546,-0.3816 0,-0.1023 0.0229,-0.1928 0.0694,-0.271 0.0464,-0.0788 0.1082,-0.1423 0.1852,-0.1899 0.077,-0.0477 0.1711,-0.0818 0.2828,-0.1023 0.07,-0.0136 0.2028,-0.0247 0.3986,-0.033 0.1958,-0.0076 0.3363,-0.0288 0.421,-0.0617 0.0241,-0.0852 0.0365,-0.1558 0.0365,-0.2122 0,-0.0724 -0.0265,-0.1288 -0.0794,-0.1705 -0.0723,-0.0571 -0.1782,-0.0859 -0.3169,-0.0859 -0.1311,0 -0.2381,0.0288 -0.321,0.087 -0.0835,0.0582 -0.1441,0.1406 -0.1817,0.247l-0.3157 -0.0277c0.0646,-0.1811 0.1663,-0.3198 0.3057,-0.4168 0.1399,-0.0964 0.3157,-0.1447 0.528,-0.1447 0.2263,0 0.4057,0.0541 0.5374,0.1623 0.1011,0.08 0.1516,0.1846 0.1516,0.3134 0,0.0976 -0.0141,0.2105 -0.0429,0.3392l-0.1017 0.4551c-0.0323,0.1447 -0.0482,0.2622 -0.0482,0.3528 0,0.0576 0.0129,0.1399 0.0382,0.2481l-0.3157 0c-0.0171,-0.06 -0.0288,-0.1352 -0.0359,-0.2275zm0.1153 -0.6991c-0.0435,0.017 -0.0906,0.0306 -0.1406,0.0394 -0.0499,0.0094 -0.1334,0.0188 -0.2504,0.0294 -0.1811,0.0159 -0.3093,0.0364 -0.384,0.0611 -0.0746,0.0247 -0.1311,0.0641 -0.1687,0.1182 -0.0382,0.0535 -0.057,0.1135 -0.057,0.1787 0,0.0876 0.03,0.1594 0.0905,0.2158 0.06,0.0559 0.1458,0.0841 0.2575,0.0841 0.1035,0 0.2029,-0.027 0.2981,-0.0817 0.0953,-0.0547 0.1705,-0.1306 0.2252,-0.2282 0.0553,-0.0976 0.0982,-0.2369 0.1294,-0.4168z"/>
  <path id="123" class="fil2" d="M51.9349 91.8953l0.3116 0.0329c-0.0782,0.2287 -0.1893,0.398 -0.3333,0.5092 -0.1441,0.1105 -0.3081,0.1658 -0.4916,0.1658 -0.1987,0 -0.3598,-0.0641 -0.4833,-0.1929 -0.1234,-0.1288 -0.1852,-0.3081 -0.1852,-0.5391 0,-0.1999 0.0394,-0.3963 0.1188,-0.5892 0.0794,-0.1928 0.1929,-0.3392 0.3404,-0.4398 0.1476,-0.1005 0.3158,-0.1511 0.5057,-0.1511 0.1963,0 0.3516,0.0559 0.4662,0.1664 0.1152,0.1112 0.1723,0.2576 0.1723,0.4404l-0.3063 0.0206c-0.0012,-0.1164 -0.0347,-0.207 -0.1006,-0.2722 -0.0664,-0.0653 -0.1534,-0.0982 -0.261,-0.0982 -0.1253,0 -0.234,0.0394 -0.3258,0.1187 -0.0917,0.0794 -0.164,0.1994 -0.2163,0.361 -0.0523,0.1611 -0.0782,0.3164 -0.0782,0.4657 0,0.1564 0.0347,0.2734 0.1035,0.3516 0.0687,0.0782 0.154,0.117 0.2545,0.117 0.1012,0 0.1982,-0.0382 0.2905,-0.1152 0.0923,-0.0771 0.1652,-0.1941 0.2181,-0.3516z"/>
  <path id="1234" class="fil2" d="M52.4911 91.8676c0,-0.3569 0.1052,-0.6526 0.3151,-0.8866 0.1735,-0.1934 0.401,-0.2899 0.682,-0.2899 0.2205,0 0.3987,0.0694 0.5333,0.207 0.1346,0.1376 0.2023,0.324 0.2023,0.558 0,0.2105 -0.0424,0.4057 -0.1276,0.5867 -0.0847,0.1805 -0.2058,0.3193 -0.3622,0.4157 -0.157,0.0964 -0.3222,0.1447 -0.4956,0.1447 -0.1423,0 -0.2717,-0.03 -0.3881,-0.0912 -0.1164,-0.0605 -0.2058,-0.147 -0.2669,-0.2581 -0.0618,-0.1117 -0.0923,-0.2405 -0.0923,-0.3863zm0.3116 -0.0305c0,0.1722 0.0417,0.3028 0.124,0.3915 0.0829,0.0888 0.1882,0.1335 0.3152,0.1335 0.067,0 0.1329,-0.0135 0.1981,-0.0406 0.0659,-0.027 0.1264,-0.0676 0.1829,-0.1229 0.0558,-0.0552 0.104,-0.1181 0.1434,-0.1887 0.04,-0.0705 0.0718,-0.1464 0.0959,-0.2281 0.0358,-0.1141 0.0535,-0.2228 0.0535,-0.3275 0,-0.1652 -0.0418,-0.2934 -0.1253,-0.3851 -0.0829,-0.0911 -0.1875,-0.1364 -0.3139,-0.1364 -0.0976,0 -0.187,0.0229 -0.267,0.0694 -0.0805,0.0464 -0.1534,0.1146 -0.2181,0.204 -0.0647,0.0899 -0.1123,0.194 -0.1429,0.3128 -0.0305,0.1187 -0.0458,0.2246 -0.0458,0.3181z"/>
  <path id="12345" class="fil2" d="M54.3978 92.562l0.3828 -1.8291 0.2751 0 -0.077 0.3733c0.0941,-0.1411 0.1858,-0.2457 0.2763,-0.3133 0.09,-0.0677 0.1823,-0.1018 0.2764,-0.1018 0.0617,0 0.1381,0.0224 0.2293,0.0677l-0.1276 0.2892c-0.0541,-0.0394 -0.1135,-0.0588 -0.1776,-0.0588 -0.1087,0 -0.221,0.0612 -0.3357,0.1829 -0.1152,0.1217 -0.2052,0.3404 -0.2705,0.6561l-0.1552 0.7338 -0.2963 0z"/>
  <path id="123456" class="fil2" d="M56.806 92.3345c-0.1082,0.0929 -0.2116,0.1611 -0.3116,0.204 -0.0999,0.0435 -0.207,0.0647 -0.3204,0.0647 -0.1688,0 -0.3052,-0.0494 -0.4087,-0.1488 -0.1028,-0.0994 -0.1546,-0.2264 -0.1546,-0.3816 0,-0.1023 0.0229,-0.1928 0.0694,-0.271 0.0464,-0.0788 0.1082,-0.1423 0.1852,-0.1899 0.077,-0.0477 0.1711,-0.0818 0.2828,-0.1023 0.07,-0.0136 0.2028,-0.0247 0.3986,-0.033 0.1958,-0.0076 0.3363,-0.0288 0.421,-0.0617 0.0241,-0.0852 0.0365,-0.1558 0.0365,-0.2122 0,-0.0724 -0.0265,-0.1288 -0.0794,-0.1705 -0.0723,-0.0571 -0.1782,-0.0859 -0.3169,-0.0859 -0.1311,0 -0.2381,0.0288 -0.321,0.087 -0.0835,0.0582 -0.1441,0.1406 -0.1817,0.247l-0.3157 -0.0277c0.0646,-0.1811 0.1663,-0.3198 0.3057,-0.4168 0.1399,-0.0964 0.3157,-0.1447 0.528,-0.1447 0.2263,0 0.4057,0.0541 0.5374,0.1623 0.1011,0.08 0.1516,0.1846 0.1516,0.3134 0,0.0976 -0.0141,0.2105 -0.0429,0.3392l-0.1017 0.4551c-0.0323,0.1447 -0.0482,0.2622 -0.0482,0.3528 0,0.0576 0.0129,0.1399 0.0382,0.2481l-0.3157 0c-0.0171,-0.06 -0.0288,-0.1352 -0.0359,-0.2275zm0.1153 -0.6991c-0.0435,0.017 -0.0906,0.0306 -0.1406,0.0394 -0.0499,0.0094 -0.1334,0.0188 -0.2504,0.0294 -0.1811,0.0159 -0.3093,0.0364 -0.384,0.0611 -0.0746,0.0247 -0.1311,0.0641 -0.1687,0.1182 -0.0382,0.0535 -0.057,0.1135 -0.057,0.1787 0,0.0876 0.03,0.1594 0.0905,0.2158 0.06,0.0559 0.1458,0.0841 0.2575,0.0841 0.1035,0 0.2029,-0.027 0.2981,-0.0817 0.0953,-0.0547 0.1705,-0.1306 0.2252,-0.2282 0.0553,-0.0976 0.0982,-0.2369 0.1294,-0.4168z"/>
  <path class="fil2" d="M69.9068 265.583l1.4311 -2.5252 0.3981 0 0.4168 2.5252 -0.3269 0 -0.1223 -0.7267 -1.0218 0 -0.4045 0.7267 -0.3705 0zm0.9196 -0.9872l0.8355 0 -0.0982 -0.6338c-0.0376,-0.2516 -0.0612,-0.4609 -0.0706,-0.6285 -0.0576,0.1446 -0.1411,0.3163 -0.2516,0.515l-0.4151 0.7473z"/>
  <path id="1" class="fil2" d="M73.1759 265.33l-0.0512 0.2552c-0.0746,0.0194 -0.147,0.0294 -0.2175,0.0294 -0.1235,0 -0.2223,-0.0306 -0.2958,-0.0918 -0.0552,-0.0458 -0.0829,-0.1081 -0.0829,-0.1875 0,-0.04 0.0147,-0.1323 0.0447,-0.2775l0.2223 -1.0625 -0.2464 0 0.05 -0.241 0.2463 0 0.0947 -0.4498 0.3569 -0.2152 -0.1399 0.665 0.3069 0 -0.0518 0.241 -0.3051 0 -0.2117 1.0113c-0.0264,0.1282 -0.0394,0.2052 -0.0394,0.2305 0,0.037 0.0106,0.0647 0.0318,0.0847 0.0211,0.0194 0.0558,0.0288 0.104,0.0288 0.0688,0 0.1306,-0.0065 0.1841,-0.0206z"/>
  <polygon id="12" class="fil2" points="73.4034,265.583 73.9308,263.058 74.2424,263.058 73.715,265.583 "/>
  <path id="123" class="fil2" d="M75.4447 265.355c-0.1082,0.0929 -0.2116,0.1611 -0.3116,0.204 -0.0999,0.0435 -0.207,0.0647 -0.3204,0.0647 -0.1688,0 -0.3052,-0.0494 -0.4087,-0.1488 -0.1028,-0.0994 -0.1546,-0.2264 -0.1546,-0.3816 0,-0.1023 0.0229,-0.1928 0.0694,-0.271 0.0464,-0.0788 0.1082,-0.1423 0.1852,-0.1899 0.077,-0.0477 0.1711,-0.0818 0.2828,-0.1023 0.07,-0.0136 0.2028,-0.0247 0.3986,-0.033 0.1958,-0.0076 0.3363,-0.0288 0.421,-0.0617 0.0241,-0.0852 0.0365,-0.1558 0.0365,-0.2122 0,-0.0724 -0.0265,-0.1288 -0.0794,-0.1705 -0.0723,-0.0571 -0.1782,-0.0859 -0.3169,-0.0859 -0.1311,0 -0.2381,0.0288 -0.321,0.087 -0.0835,0.0582 -0.1441,0.1406 -0.1817,0.247l-0.3157 -0.0277c0.0646,-0.1811 0.1663,-0.3198 0.3057,-0.4168 0.1399,-0.0964 0.3157,-0.1447 0.528,-0.1447 0.2263,0 0.4057,0.0541 0.5374,0.1623 0.1011,0.08 0.1516,0.1846 0.1516,0.3134 0,0.0976 -0.0141,0.2105 -0.0429,0.3392l-0.1017 0.4551c-0.0323,0.1447 -0.0482,0.2622 -0.0482,0.3528 0,0.0576 0.0129,0.1399 0.0382,0.2481l-0.3157 0c-0.0171,-0.06 -0.0288,-0.1352 -0.0359,-0.2275zm0.1153 -0.6991c-0.0435,0.017 -0.0906,0.0306 -0.1406,0.0394 -0.0499,0.0094 -0.1334,0.0188 -0.2504,0.0294 -0.1811,0.0159 -0.3093,0.0364 -0.384,0.0611 -0.0746,0.0247 -0.1311,0.0641 -0.1687,0.1182 -0.0382,0.0535 -0.057,0.1135 -0.057,0.1787 0,0.0876 0.03,0.1594 0.0905,0.2158 0.06,0.0559 0.1458,0.0841 0.2575,0.0841 0.1035,0 0.2029,-0.027 0.2981,-0.0817 0.0953,-0.0547 0.1705,-0.1306 0.2252,-0.2282 0.0553,-0.0976 0.0982,-0.2369 0.1294,-0.4168z"/>
  <path id="1234" class="fil2" d="M76.1732 265.583l0.3828 -1.8291 0.2822 0 -0.0671 0.3187c0.1229,-0.1253 0.2376,-0.217 0.3446,-0.274 0.1064,-0.0576 0.2158,-0.0865 0.3269,-0.0865 0.1481,0 0.2646,0.0406 0.3492,0.1206 0.0841,0.0805 0.1264,0.1881 0.1264,0.3222 0,0.0682 -0.0147,0.1746 -0.0446,0.3204l-0.2329 1.1077 -0.3116 0 0.2428 -1.1594c0.0241,-0.1123 0.0365,-0.1958 0.0365,-0.2493 0,-0.0612 -0.0212,-0.1106 -0.0629,-0.1482 -0.0424,-0.0382 -0.1029,-0.057 -0.1817,-0.057 -0.1599,0 -0.3022,0.0576 -0.4263,0.1722 -0.1246,0.1147 -0.2163,0.3117 -0.2751,0.5909l-0.177 0.8508 -0.3122 0z"/>
  <path id="12345" class="fil2" d="M78.8637 265.33l-0.0512 0.2552c-0.0746,0.0194 -0.147,0.0294 -0.2175,0.0294 -0.1235,0 -0.2223,-0.0306 -0.2958,-0.0918 -0.0552,-0.0458 -0.0829,-0.1081 -0.0829,-0.1875 0,-0.04 0.0147,-0.1323 0.0447,-0.2775l0.2223 -1.0625 -0.2464 0 0.05 -0.241 0.2463 0 0.0947 -0.4498 0.3569 -0.2152 -0.1399 0.665 0.3069 0 -0.0518 0.241 -0.3051 0 -0.2117 1.0113c-0.0264,0.1282 -0.0394,0.2052 -0.0394,0.2305 0,0.037 0.0106,0.0647 0.0318,0.0847 0.0211,0.0194 0.0558,0.0288 0.104,0.0288 0.0688,0 0.1306,-0.0065 0.1841,-0.0206z"/>
  <path id="123456" class="fil2" d="M79.558 263.411l0.0741 -0.3533 0.3099 0 -0.0735 0.3533 -0.3105 0zm-0.4545 2.1719l0.3822 -1.8291 0.3116 0 -0.3821 1.8291 -0.3117 0z"/>
  <path id="1234567" class="fil2" d="M81.0808 265.376c-0.1782,0.1658 -0.3487,0.2482 -0.5115,0.2482 -0.17,0 -0.3134,-0.0647 -0.431,-0.1935 -0.117,-0.1293 -0.1752,-0.3128 -0.1752,-0.5503 0,-0.2275 0.0441,-0.4333 0.1335,-0.6168 0.0887,-0.184 0.2022,-0.3216 0.341,-0.4133 0.1381,-0.0923 0.281,-0.1382 0.428,-0.1382 0.1111,0 0.2128,0.0318 0.304,0.0941 0.0911,0.0623 0.1652,0.157 0.221,0.2834l0.0706 -0.3357 0.2687 0 -0.5268 2.5299 -0.3116 0 0.1893 -0.9078zm-0.8096 -0.5373c0,0.1805 0.0376,0.3139 0.1117,0.4009 0.0747,0.0865 0.1681,0.13 0.2793,0.13 0.094,0 0.1893,-0.0394 0.2851,-0.1176 0.0959,-0.0776 0.1746,-0.1952 0.2358,-0.351 0.0617,-0.1564 0.0923,-0.3075 0.0923,-0.4533 0,-0.1494 -0.0382,-0.2664 -0.1152,-0.351 -0.0771,-0.0853 -0.1711,-0.1276 -0.2828,-0.1276 -0.1088,0 -0.2041,0.0353 -0.2858,0.107 -0.107,0.0917 -0.1905,0.224 -0.2516,0.3974 -0.0459,0.1335 -0.0688,0.2552 -0.0688,0.3652z"/>
  <path class="fil2" d="M94.8886 128.812l0.5285 -2.5252 0.782 0c0.1423,0 0.2481,0.0058 0.3169,0.017 0.1129,0.02 0.2075,0.0541 0.2852,0.1029 0.0776,0.0488 0.1375,0.1152 0.1799,0.1999 0.0429,0.0841 0.0641,0.1776 0.0641,0.2799 0,0.1387 -0.0383,0.261 -0.1147,0.3668 -0.0764,0.1053 -0.1934,0.1858 -0.3504,0.2411 0.1364,0.0447 0.2387,0.1123 0.3063,0.2023 0.0676,0.0899 0.1017,0.1957 0.1017,0.3163 0,0.1387 -0.04,0.2722 -0.1199,0.3992 -0.0794,0.1276 -0.1852,0.2264 -0.3169,0.2957 -0.1311,0.0694 -0.2781,0.1041 -0.4398,0.1041l-1.2229 0zm0.6408 -1.4469l0.5115 0c0.2446,0 0.4204,-0.0388 0.528,-0.117 0.107,-0.0782 0.1611,-0.1917 0.1611,-0.3411 0,-0.0711 -0.017,-0.1328 -0.05,-0.1846 -0.0335,-0.0517 -0.0782,-0.0893 -0.1334,-0.1129 -0.0559,-0.0235 -0.1605,-0.0352 -0.3146,-0.0352l-0.5374 0 -0.1652 0.7908zm-0.2428 1.1612l0.575 0c0.1529,0 0.2558,-0.0053 0.3081,-0.0159 0.107,-0.0182 0.194,-0.0494 0.2605,-0.0935 0.0664,-0.0447 0.1187,-0.1029 0.1564,-0.1752 0.0382,-0.0723 0.057,-0.1482 0.057,-0.227 0,-0.1187 -0.0371,-0.2081 -0.1111,-0.2698 -0.0741,-0.0612 -0.2152,-0.0923 -0.4228,-0.0923l-0.6408 0 -0.1823 0.8737z"/>
  <path id="1" class="fil2" d="M97.2604 128.117c0,-0.3569 0.1052,-0.6526 0.3151,-0.8866 0.1735,-0.1934 0.401,-0.2899 0.682,-0.2899 0.2205,0 0.3987,0.0694 0.5333,0.207 0.1346,0.1376 0.2023,0.324 0.2023,0.558 0,0.2105 -0.0424,0.4057 -0.1276,0.5867 -0.0847,0.1805 -0.2058,0.3193 -0.3622,0.4157 -0.157,0.0964 -0.3222,0.1447 -0.4956,0.1447 -0.1423,0 -0.2717,-0.03 -0.3881,-0.0912 -0.1164,-0.0605 -0.2058,-0.147 -0.2669,-0.2581 -0.0618,-0.1117 -0.0923,-0.2405 -0.0923,-0.3863zm0.3116 -0.0305c0,0.1722 0.0417,0.3028 0.124,0.3915 0.0829,0.0888 0.1882,0.1335 0.3152,0.1335 0.067,0 0.1329,-0.0135 0.1981,-0.0406 0.0659,-0.027 0.1264,-0.0676 0.1829,-0.1229 0.0558,-0.0552 0.104,-0.1181 0.1434,-0.1887 0.04,-0.0705 0.0718,-0.1464 0.0959,-0.2281 0.0358,-0.1141 0.0535,-0.2228 0.0535,-0.3275 0,-0.1652 -0.0418,-0.2934 -0.1253,-0.3851 -0.0829,-0.0911 -0.1875,-0.1364 -0.3139,-0.1364 -0.0976,0 -0.187,0.0229 -0.267,0.0694 -0.0805,0.0464 -0.1534,0.1146 -0.2181,0.204 -0.0647,0.0899 -0.1123,0.194 -0.1429,0.3128 -0.0305,0.1187 -0.0458,0.2246 -0.0458,0.3181z"/>
  <path id="12" class="fil2" d="M99.1671 128.812l0.3828 -1.8291 0.2751 0 -0.077 0.3733c0.0941,-0.1411 0.1858,-0.2457 0.2763,-0.3133 0.09,-0.0677 0.1823,-0.1018 0.2764,-0.1018 0.0617,0 0.1381,0.0224 0.2293,0.0677l-0.1276 0.2892c-0.0541,-0.0394 -0.1135,-0.0588 -0.1776,-0.0588 -0.1087,0 -0.221,0.0612 -0.3357,0.1829 -0.1152,0.1217 -0.2052,0.3404 -0.2705,0.6561l-0.1552 0.7338 -0.2963 0z"/>
  <path id="123" class="fil2" d="M100.325 128.977l0.3151 0.0294c-0.0024,0.0712 0.0065,0.1247 0.0259,0.1605 0.0194,0.0353 0.0505,0.0629 0.0929,0.0823 0.0564,0.0253 0.1293,0.0383 0.2187,0.0383 0.1887,0 0.3239,-0.0488 0.4068,-0.1464 0.0535,-0.0659 0.1035,-0.2082 0.15,-0.4275l0.0305 -0.1482c-0.1616,0.1641 -0.3339,0.2464 -0.5168,0.2464 -0.1846,0 -0.3392,-0.0682 -0.4639,-0.204 -0.1246,-0.1364 -0.1869,-0.3287 -0.1869,-0.578 0,-0.2058 0.0488,-0.3945 0.147,-0.5668 0.0981,-0.1722 0.2151,-0.3022 0.351,-0.3904 0.1352,-0.0876 0.2745,-0.1317 0.4186,-0.1317 0.2399,0 0.4245,0.1141 0.5544,0.3411l0.0618 -0.2993 0.2863 0 -0.3687 1.7656c-0.0405,0.194 -0.0929,0.3451 -0.1587,0.4539 -0.0653,0.1082 -0.1564,0.1923 -0.2728,0.2522 -0.1164,0.0594 -0.2511,0.0894 -0.4039,0.0894 -0.147,0 -0.2734,-0.0188 -0.3799,-0.057 -0.1064,-0.0377 -0.1857,-0.0929 -0.2375,-0.1658 -0.0523,-0.0729 -0.0788,-0.1564 -0.0788,-0.2511 0,-0.0282 0.003,-0.0594 0.0089,-0.0929zm0.3892 -0.9748c0,0.1252 0.0123,0.2193 0.0364,0.2828 0.0341,0.0882 0.0835,0.1558 0.147,0.2023 0.0635,0.0464 0.1347,0.0693 0.2129,0.0693 0.1023,0 0.204,-0.0358 0.3045,-0.1076 0.1011,-0.0717 0.1829,-0.1828 0.2458,-0.3333 0.0623,-0.15 0.094,-0.294 0.094,-0.4304 0,-0.1505 -0.0417,-0.2699 -0.1252,-0.3592 -0.0829,-0.0888 -0.1864,-0.1335 -0.3092,-0.1335 -0.0759,0 -0.1494,0.0206 -0.2205,0.0611 -0.0712,0.0406 -0.1376,0.1029 -0.1988,0.1858 -0.0617,0.0835 -0.1081,0.1835 -0.1393,0.2993 -0.0318,0.1158 -0.0476,0.2034 -0.0476,0.2634z"/>
  <path id="1234" class="fil2" d="M102.359 128.117c0,-0.3569 0.1052,-0.6526 0.3151,-0.8866 0.1735,-0.1934 0.401,-0.2899 0.682,-0.2899 0.2205,0 0.3987,0.0694 0.5333,0.207 0.1346,0.1376 0.2023,0.324 0.2023,0.558 0,0.2105 -0.0424,0.4057 -0.1276,0.5867 -0.0847,0.1805 -0.2058,0.3193 -0.3622,0.4157 -0.157,0.0964 -0.3222,0.1447 -0.4956,0.1447 -0.1423,0 -0.2717,-0.03 -0.3881,-0.0912 -0.1164,-0.0605 -0.2058,-0.147 -0.2669,-0.2581 -0.0618,-0.1117 -0.0923,-0.2405 -0.0923,-0.3863zm0.3116 -0.0305c0,0.1722 0.0417,0.3028 0.124,0.3915 0.0829,0.0888 0.1882,0.1335 0.3152,0.1335 0.067,0 0.1329,-0.0135 0.1981,-0.0406 0.0659,-0.027 0.1264,-0.0676 0.1829,-0.1229 0.0558,-0.0552 0.104,-0.1181 0.1434,-0.1887 0.04,-0.0705 0.0718,-0.1464 0.0959,-0.2281 0.0358,-0.1141 0.0535,-0.2228 0.0535,-0.3275 0,-0.1652 -0.0418,-0.2934 -0.1253,-0.3851 -0.0829,-0.0911 -0.1875,-0.1364 -0.3139,-0.1364 -0.0976,0 -0.187,0.0229 -0.267,0.0694 -0.0805,0.0464 -0.1534,0.1146 -0.2181,0.204 -0.0647,0.0899 -0.1123,0.194 -0.1429,0.3128 -0.0305,0.1187 -0.0458,0.2246 -0.0458,0.3181z"/>
  <path id="12345" class="fil2" d="M105.515 128.481c-0.2193,0.2481 -0.4439,0.3722 -0.6732,0.3722 -0.1411,0 -0.2552,-0.0406 -0.3422,-0.1212 -0.0864,-0.0811 -0.1299,-0.1799 -0.1299,-0.2975 0,-0.0764 0.0194,-0.2087 0.0588,-0.3957l0.2205 -1.0559 0.3116 0 -0.2446 1.1694c-0.0206,0.0976 -0.0312,0.1735 -0.0312,0.2276 0,0.0687 0.0212,0.1223 0.0629,0.1611 0.0418,0.0382 0.1035,0.0576 0.1852,0.0576 0.0871,0 0.1723,-0.0212 0.2558,-0.0641 0.0835,-0.0423 0.1552,-0.1 0.2152,-0.1723 0.0605,-0.0723 0.1093,-0.1576 0.1476,-0.2563 0.0252,-0.0635 0.0546,-0.1741 0.0876,-0.3328l0.1652 -0.7902 0.3122 0 -0.3828 1.8291 -0.2875 0 0.0688 -0.331z"/>
  <path class="fil2" d="M70.8676 200.407l0.3345 0.0465c-0.1058,0.2916 -0.2598,0.5121 -0.4621,0.6614 -0.2016,0.1494 -0.4286,0.224 -0.6802,0.224 -0.3064,0 -0.5498,-0.0935 -0.7297,-0.2804 -0.1793,-0.1876 -0.2693,-0.4557 -0.2693,-0.8043 0,-0.4551 0.1364,-0.8314 0.4098,-1.1283 0.2434,-0.2658 0.5462,-0.3981 0.9078,-0.3981 0.2675,0 0.4845,0.0718 0.6503,0.2152 0.1658,0.1435 0.2622,0.3363 0.2887,0.5786l-0.3152 0.0294c-0.0335,-0.1823 -0.1023,-0.3187 -0.2057,-0.4092 -0.1041,-0.09 -0.2382,-0.1353 -0.4022,-0.1353 -0.3093,0 -0.5591,0.1376 -0.7496,0.4122 -0.1652,0.2363 -0.2481,0.5174 -0.2481,0.8419 0,0.2599 0.064,0.458 0.191,0.5944 0.1276,0.1364 0.2934,0.2052 0.498,0.2052 0.1747,0 0.3328,-0.057 0.4739,-0.1705 0.1411,-0.114 0.244,-0.2745 0.3081,-0.4827z"/>
  <path id="1" class="fil2" d="M71.4603 200.602c0,-0.3569 0.1052,-0.6526 0.3151,-0.8866 0.1735,-0.1934 0.401,-0.2899 0.682,-0.2899 0.2205,0 0.3987,0.0694 0.5333,0.207 0.1346,0.1376 0.2023,0.324 0.2023,0.558 0,0.2105 -0.0424,0.4057 -0.1276,0.5867 -0.0847,0.1805 -0.2058,0.3193 -0.3622,0.4157 -0.157,0.0964 -0.3222,0.1447 -0.4956,0.1447 -0.1423,0 -0.2717,-0.03 -0.3881,-0.0912 -0.1164,-0.0605 -0.2058,-0.147 -0.2669,-0.2581 -0.0618,-0.1117 -0.0923,-0.2405 -0.0923,-0.3863zm0.3116 -0.0305c0,0.1722 0.0417,0.3028 0.124,0.3915 0.0829,0.0888 0.1882,0.1335 0.3152,0.1335 0.067,0 0.1329,-0.0135 0.1981,-0.0406 0.0659,-0.027 0.1264,-0.0676 0.1829,-0.1229 0.0558,-0.0552 0.104,-0.1181 0.1434,-0.1887 0.04,-0.0705 0.0718,-0.1464 0.0959,-0.2281 0.0358,-0.1141 0.0535,-0.2228 0.0535,-0.3275 0,-0.1652 -0.0418,-0.2934 -0.1253,-0.3851 -0.0829,-0.0911 -0.1875,-0.1364 -0.3139,-0.1364 -0.0976,0 -0.187,0.0229 -0.267,0.0694 -0.0805,0.0464 -0.1534,0.1146 -0.2181,0.204 -0.0647,0.0899 -0.1123,0.194 -0.1429,0.3128 -0.0305,0.1187 -0.0458,0.2246 -0.0458,0.3181z"/>
  <polygon id="12" class="fil2" points="73.3429,201.296 73.8703,198.771 74.1819,198.771 73.6545,201.296 "/>
  <polygon id="123" class="fil2" points="74.1266,201.296 74.654,198.771 74.9656,198.771 74.4382,201.296 "/>
  <path id="1234" class="fil2" d="M75.3771 199.124l0.0741 -0.3533 0.3099 0 -0.0735 0.3533 -0.3105 0zm-0.4545 2.1719l0.3822 -1.8291 0.3116 0 -0.3821 1.8291 -0.3117 0z"/>
  <path id="12345" class="fil2" d="M75.7181 201.296l0.3828 -1.8291 0.2822 0 -0.0671 0.3187c0.1229,-0.1253 0.2376,-0.217 0.3446,-0.274 0.1064,-0.0576 0.2158,-0.0865 0.3269,-0.0865 0.1481,0 0.2646,0.0406 0.3492,0.1206 0.0841,0.0805 0.1264,0.1881 0.1264,0.3222 0,0.0682 -0.0147,0.1746 -0.0446,0.3204l-0.2329 1.1077 -0.3116 0 0.2428 -1.1594c0.0241,-0.1123 0.0365,-0.1958 0.0365,-0.2493 0,-0.0612 -0.0212,-0.1106 -0.0629,-0.1482 -0.0424,-0.0382 -0.1029,-0.057 -0.1817,-0.057 -0.1599,0 -0.3022,0.0576 -0.4263,0.1722 -0.1246,0.1147 -0.2163,0.3117 -0.2751,0.5909l-0.177 0.8508 -0.3122 0z"/>
  <path id="123456" class="fil2" d="M79.0236 200.674l0.3033 0.0312c-0.0435,0.1505 -0.144,0.2934 -0.3004,0.4292 -0.157,0.1352 -0.3439,0.2029 -0.5609,0.2029 -0.1352,0 -0.2599,-0.0312 -0.3728,-0.0935 -0.1128,-0.0629 -0.1993,-0.1541 -0.2587,-0.2734 -0.0588,-0.1194 -0.0881,-0.2552 -0.0881,-0.4081 0,-0.1999 0.0458,-0.3933 0.1381,-0.5814 0.0929,-0.1876 0.2123,-0.3269 0.3593,-0.4187 0.1469,-0.0911 0.3063,-0.137 0.4774,-0.137 0.2181,0 0.3921,0.0682 0.5227,0.2035 0.1305,0.1358 0.1952,0.3204 0.1952,0.5544 0,0.09 -0.0077,0.1817 -0.0241,0.2758l-1.347 0c-0.0042,0.0358 -0.0065,0.0676 -0.0065,0.0964 0,0.1711 0.0394,0.3016 0.1176,0.3921 0.0788,0.09 0.1752,0.1353 0.2887,0.1353 0.107,0 0.2116,-0.0353 0.3151,-0.1053 0.1035,-0.0699 0.184,-0.1711 0.2411,-0.3034zm-0.9061 -0.4527l1.0266 0c0.0012,-0.0323 0.0018,-0.0552 0.0018,-0.0688 0,-0.1564 -0.0388,-0.2763 -0.117,-0.3592 -0.0782,-0.0835 -0.1788,-0.1252 -0.3017,-0.1252 -0.1328,0 -0.2545,0.0464 -0.3639,0.1381 -0.1099,0.0918 -0.1917,0.2299 -0.2458,0.4151z"/>
  <path id="1234567" class="fil2" d="M79.6715 200.671l0.3116 -0.0194c0,0.09 0.0141,0.1664 0.0418,0.2293 0.027,0.0629 0.0782,0.1147 0.1522,0.1552 0.0741,0.04 0.1605,0.06 0.2593,0.06 0.1376,0 0.2411,-0.0276 0.3099,-0.0823 0.0688,-0.0553 0.1035,-0.1205 0.1035,-0.1952 0,-0.0535 -0.0206,-0.1047 -0.0624,-0.1529 -0.0423,-0.0482 -0.1458,-0.1076 -0.3104,-0.1781 -0.1652,-0.0712 -0.2705,-0.1206 -0.3163,-0.1494 -0.077,-0.047 -0.1347,-0.1023 -0.1741,-0.1664 -0.0388,-0.0635 -0.0582,-0.137 -0.0582,-0.2193 0,-0.1446 0.0571,-0.2687 0.1723,-0.3721 0.1147,-0.1035 0.2752,-0.1553 0.4821,-0.1553 0.2293,0 0.4045,0.0535 0.5245,0.1594 0.1199,0.1064 0.1822,0.2463 0.1869,0.4198l-0.3051 0.0206c-0.0047,-0.1106 -0.0435,-0.1976 -0.117,-0.2617 -0.0735,-0.0647 -0.1776,-0.0964 -0.3116,-0.0964 -0.1082,0 -0.1917,0.0247 -0.2517,0.0735 -0.0599,0.0494 -0.0893,0.1029 -0.0893,0.1605 0,0.0576 0.0258,0.1082 0.0776,0.1517 0.0341,0.03 0.1229,0.0758 0.2669,0.1376 0.2387,0.1034 0.3892,0.1852 0.451,0.2446 0.0987,0.0952 0.1481,0.2116 0.1481,0.348 0,0.0906 -0.0276,0.1799 -0.0835,0.2669 -0.0558,0.0871 -0.1405,0.157 -0.2551,0.2094 -0.1141,0.0523 -0.2487,0.0782 -0.404,0.0782 -0.211,0 -0.3909,-0.0524 -0.5391,-0.1564 -0.1482,-0.1047 -0.2181,-0.2746 -0.2099,-0.5098z"/>
  <path class="fil2" d="M57.396 249.811l0.3345 0.0465c-0.1058,0.2916 -0.2598,0.5121 -0.4621,0.6614 -0.2016,0.1494 -0.4286,0.224 -0.6802,0.224 -0.3064,0 -0.5498,-0.0935 -0.7297,-0.2804 -0.1793,-0.1876 -0.2693,-0.4557 -0.2693,-0.8043 0,-0.4551 0.1364,-0.8314 0.4098,-1.1283 0.2434,-0.2658 0.5462,-0.3981 0.9078,-0.3981 0.2675,0 0.4845,0.0718 0.6503,0.2152 0.1658,0.1435 0.2622,0.3363 0.2887,0.5786l-0.3152 0.0294c-0.0335,-0.1823 -0.1023,-0.3187 -0.2057,-0.4092 -0.1041,-0.09 -0.2382,-0.1353 -0.4022,-0.1353 -0.3093,0 -0.5591,0.1376 -0.7496,0.4122 -0.1652,0.2363 -0.2481,0.5174 -0.2481,0.8419 0,0.2599 0.064,0.458 0.191,0.5944 0.1276,0.1364 0.2934,0.2052 0.498,0.2052 0.1747,0 0.3328,-0.057 0.4739,-0.1705 0.1411,-0.114 0.244,-0.2745 0.3081,-0.4827z"/>
  <path id="1" class="fil2" d="M57.9887 250.005c0,-0.3569 0.1052,-0.6526 0.3151,-0.8866 0.1735,-0.1934 0.401,-0.2899 0.682,-0.2899 0.2205,0 0.3987,0.0694 0.5333,0.207 0.1346,0.1376 0.2023,0.324 0.2023,0.558 0,0.2105 -0.0424,0.4057 -0.1276,0.5867 -0.0847,0.1805 -0.2058,0.3193 -0.3622,0.4157 -0.157,0.0964 -0.3222,0.1447 -0.4956,0.1447 -0.1423,0 -0.2717,-0.03 -0.3881,-0.0912 -0.1164,-0.0605 -0.2058,-0.147 -0.2669,-0.2581 -0.0618,-0.1117 -0.0923,-0.2405 -0.0923,-0.3863zm0.3116 -0.0305c0,0.1722 0.0417,0.3028 0.124,0.3915 0.0829,0.0888 0.1882,0.1335 0.3152,0.1335 0.067,0 0.1329,-0.0135 0.1981,-0.0406 0.0659,-0.027 0.1264,-0.0676 0.1829,-0.1229 0.0558,-0.0552 0.104,-0.1181 0.1434,-0.1887 0.04,-0.0705 0.0718,-0.1464 0.0959,-0.2281 0.0358,-0.1141 0.0535,-0.2228 0.0535,-0.3275 0,-0.1652 -0.0418,-0.2934 -0.1253,-0.3851 -0.0829,-0.0911 -0.1875,-0.1364 -0.3139,-0.1364 -0.0976,0 -0.187,0.0229 -0.267,0.0694 -0.0805,0.0464 -0.1534,0.1146 -0.2181,0.204 -0.0647,0.0899 -0.1123,0.194 -0.1429,0.3128 -0.0305,0.1187 -0.0458,0.2246 -0.0458,0.3181z"/>
  <path id="12" class="fil2" d="M61.1442 250.369c-0.2193,0.2481 -0.4439,0.3722 -0.6732,0.3722 -0.1411,0 -0.2552,-0.0406 -0.3422,-0.1212 -0.0864,-0.0811 -0.1299,-0.1799 -0.1299,-0.2975 0,-0.0764 0.0194,-0.2087 0.0588,-0.3957l0.2205 -1.0559 0.3116 0 -0.2446 1.1694c-0.0206,0.0976 -0.0312,0.1735 -0.0312,0.2276 0,0.0687 0.0212,0.1223 0.0629,0.1611 0.0418,0.0382 0.1035,0.0576 0.1852,0.0576 0.0871,0 0.1723,-0.0212 0.2558,-0.0641 0.0835,-0.0423 0.1552,-0.1 0.2152,-0.1723 0.0605,-0.0723 0.1093,-0.1576 0.1476,-0.2563 0.0252,-0.0635 0.0546,-0.1741 0.0876,-0.3328l0.1652 -0.7902 0.3122 0 -0.3828 1.8291 -0.2875 0 0.0688 -0.331z"/>
  <path id="123" class="fil2" d="M61.9003 250.7l0.3328 -1.5881 -0.2793 0 0.05 -0.241 0.2793 0 0.0535 -0.2605c0.0276,-0.1293 0.0558,-0.2234 0.0852,-0.2804 0.0294,-0.0576 0.0771,-0.1047 0.1429,-0.1423 0.0659,-0.0371 0.1558,-0.0559 0.2693,-0.0559 0.0794,0 0.194,0.0165 0.3445,0.05l-0.0564 0.2722c-0.1058,-0.0276 -0.194,-0.0417 -0.2658,-0.0417 -0.0605,0 -0.107,0.0153 -0.1381,0.0458 -0.0318,0.0306 -0.0588,0.1024 -0.0824,0.2164l-0.0411 0.1964 0.3481 0 -0.05 0.241 -0.3481 0 -0.3322 1.5881 -0.3122 0z"/>
  <path id="1234" class="fil2" d="M62.8804 250.7l0.3328 -1.5881 -0.2793 0 0.05 -0.241 0.2793 0 0.0535 -0.2605c0.0276,-0.1293 0.0558,-0.2234 0.0852,-0.2804 0.0294,-0.0576 0.0771,-0.1047 0.1429,-0.1423 0.0659,-0.0371 0.1558,-0.0559 0.2693,-0.0559 0.0794,0 0.194,0.0165 0.3445,0.05l-0.0564 0.2722c-0.1058,-0.0276 -0.194,-0.0417 -0.2658,-0.0417 -0.0605,0 -0.107,0.0153 -0.1381,0.0458 -0.0318,0.0306 -0.0588,0.1024 -0.0824,0.2164l-0.0411 0.1964 0.3481 0 -0.05 0.241 -0.3481 0 -0.3322 1.5881 -0.3122 0z"/>
  <path id="12345" class="fil2" d="M63.8729 250.005c0,-0.3569 0.1052,-0.6526 0.3151,-0.8866 0.1735,-0.1934 0.401,-0.2899 0.682,-0.2899 0.2205,0 0.3987,0.0694 0.5333,0.207 0.1346,0.1376 0.2023,0.324 0.2023,0.558 0,0.2105 -0.0424,0.4057 -0.1276,0.5867 -0.0847,0.1805 -0.2058,0.3193 -0.3622,0.4157 -0.157,0.0964 -0.3222,0.1447 -0.4956,0.1447 -0.1423,0 -0.2717,-0.03 -0.3881,-0.0912 -0.1164,-0.0605 -0.2058,-0.147 -0.2669,-0.2581 -0.0618,-0.1117 -0.0923,-0.2405 -0.0923,-0.3863zm0.3116 -0.0305c0,0.1722 0.0417,0.3028 0.124,0.3915 0.0829,0.0888 0.1882,0.1335 0.3152,0.1335 0.067,0 0.1329,-0.0135 0.1981,-0.0406 0.0659,-0.027 0.1264,-0.0676 0.1829,-0.1229 0.0558,-0.0552 0.104,-0.1181 0.1434,-0.1887 0.04,-0.0705 0.0718,-0.1464 0.0959,-0.2281 0.0358,-0.1141 0.0535,-0.2228 0.0535,-0.3275 0,-0.1652 -0.0418,-0.2934 -0.1253,-0.3851 -0.0829,-0.0911 -0.1875,-0.1364 -0.3139,-0.1364 -0.0976,0 -0.187,0.0229 -0.267,0.0694 -0.0805,0.0464 -0.1534,0.1146 -0.2181,0.204 -0.0647,0.0899 -0.1123,0.194 -0.1429,0.3128 -0.0305,0.1187 -0.0458,0.2246 -0.0458,0.3181z"/>
  <path class="fil2" d="M52.9336 146.919l0.5268 -2.5252 0.7614 0c0.1828,0 0.3222,0.0135 0.4186,0.0393 0.1376,0.0359 0.2552,0.0994 0.3534,0.1905 0.0976,0.0912 0.1711,0.2052 0.2204,0.3422 0.0488,0.1364 0.0735,0.2899 0.0735,0.4598 0,0.2034 -0.0305,0.3886 -0.0917,0.5556 -0.0617,0.167 -0.1417,0.314 -0.241,0.441 -0.0994,0.127 -0.2035,0.2263 -0.3122,0.2981 -0.1082,0.0717 -0.237,0.1246 -0.3846,0.1593 -0.1129,0.0265 -0.251,0.0394 -0.4156,0.0394l-0.909 0zm0.3974 -0.2857l0.3998 0c0.1805,0 0.3405,-0.0171 0.4804,-0.05 0.0876,-0.0206 0.1623,-0.0512 0.224,-0.0917 0.0817,-0.0512 0.1558,-0.12 0.2223,-0.2046 0.0876,-0.1129 0.1569,-0.2411 0.2093,-0.3852 0.0523,-0.144 0.0782,-0.308 0.0782,-0.4915 0,-0.2046 -0.0353,-0.3616 -0.1065,-0.4715 -0.0711,-0.1094 -0.1622,-0.1823 -0.2722,-0.2176 -0.0817,-0.0264 -0.2087,-0.0399 -0.381,-0.0399l-0.4456 0 -0.4087 1.952z"/>
  <path id="1" class="fil2" d="M55.4965 146.224c0,-0.3569 0.1052,-0.6526 0.3151,-0.8866 0.1735,-0.1934 0.401,-0.2899 0.682,-0.2899 0.2205,0 0.3987,0.0694 0.5333,0.207 0.1346,0.1376 0.2023,0.324 0.2023,0.558 0,0.2105 -0.0424,0.4057 -0.1276,0.5867 -0.0847,0.1805 -0.2058,0.3193 -0.3622,0.4157 -0.157,0.0964 -0.3222,0.1447 -0.4956,0.1447 -0.1423,0 -0.2717,-0.03 -0.3881,-0.0912 -0.1164,-0.0605 -0.2058,-0.147 -0.2669,-0.2581 -0.0618,-0.1117 -0.0923,-0.2405 -0.0923,-0.3863zm0.3116 -0.0305c0,0.1722 0.0417,0.3028 0.124,0.3915 0.0829,0.0888 0.1882,0.1335 0.3152,0.1335 0.067,0 0.1329,-0.0135 0.1981,-0.0406 0.0659,-0.027 0.1264,-0.0676 0.1829,-0.1229 0.0558,-0.0552 0.104,-0.1181 0.1434,-0.1887 0.04,-0.0705 0.0718,-0.1464 0.0959,-0.2281 0.0358,-0.1141 0.0535,-0.2228 0.0535,-0.3275 0,-0.1652 -0.0418,-0.2934 -0.1253,-0.3851 -0.0829,-0.0911 -0.1875,-0.1364 -0.3139,-0.1364 -0.0976,0 -0.187,0.0229 -0.267,0.0694 -0.0805,0.0464 -0.1534,0.1146 -0.2181,0.204 -0.0647,0.0899 -0.1123,0.194 -0.1429,0.3128 -0.0305,0.1187 -0.0458,0.2246 -0.0458,0.3181z"/>
  <path id="12" class="fil2" d="M57.4032 146.919l0.3828 -1.8291 0.2822 0 -0.0671 0.3187c0.1229,-0.1253 0.2376,-0.217 0.3446,-0.274 0.1064,-0.0576 0.2158,-0.0865 0.3269,-0.0865 0.1481,0 0.2646,0.0406 0.3492,0.1206 0.0841,0.0805 0.1264,0.1881 0.1264,0.3222 0,0.0682 -0.0147,0.1746 -0.0446,0.3204l-0.2329 1.1077 -0.3116 0 0.2428 -1.1594c0.0241,-0.1123 0.0365,-0.1958 0.0365,-0.2493 0,-0.0612 -0.0212,-0.1106 -0.0629,-0.1482 -0.0424,-0.0382 -0.1029,-0.057 -0.1817,-0.057 -0.1599,0 -0.3022,0.0576 -0.4263,0.1722 -0.1246,0.1147 -0.2163,0.3117 -0.2751,0.5909l-0.177 0.8508 -0.3122 0z"/>
  <path id="123" class="fil2" d="M59.3482 147.084l0.3151 0.0294c-0.0024,0.0712 0.0065,0.1247 0.0259,0.1605 0.0194,0.0353 0.0505,0.0629 0.0929,0.0823 0.0564,0.0253 0.1293,0.0383 0.2187,0.0383 0.1887,0 0.3239,-0.0488 0.4068,-0.1464 0.0535,-0.0659 0.1035,-0.2082 0.15,-0.4275l0.0305 -0.1482c-0.1616,0.1641 -0.3339,0.2464 -0.5168,0.2464 -0.1846,0 -0.3392,-0.0682 -0.4639,-0.204 -0.1246,-0.1364 -0.1869,-0.3287 -0.1869,-0.578 0,-0.2058 0.0488,-0.3945 0.147,-0.5668 0.0981,-0.1722 0.2151,-0.3022 0.351,-0.3904 0.1352,-0.0876 0.2745,-0.1317 0.4186,-0.1317 0.2399,0 0.4245,0.1141 0.5544,0.3411l0.0618 -0.2993 0.2863 0 -0.3687 1.7656c-0.0405,0.194 -0.0929,0.3451 -0.1587,0.4539 -0.0653,0.1082 -0.1564,0.1923 -0.2728,0.2522 -0.1164,0.0594 -0.2511,0.0894 -0.4039,0.0894 -0.147,0 -0.2734,-0.0188 -0.3799,-0.057 -0.1064,-0.0377 -0.1857,-0.0929 -0.2375,-0.1658 -0.0523,-0.0729 -0.0788,-0.1564 -0.0788,-0.2511 0,-0.0282 0.003,-0.0594 0.0089,-0.0929zm0.3892 -0.9748c0,0.1252 0.0123,0.2193 0.0364,0.2828 0.0341,0.0882 0.0835,0.1558 0.147,0.2023 0.0635,0.0464 0.1347,0.0693 0.2129,0.0693 0.1023,0 0.204,-0.0358 0.3045,-0.1076 0.1011,-0.0717 0.1829,-0.1828 0.2458,-0.3333 0.0623,-0.15 0.094,-0.294 0.094,-0.4304 0,-0.1505 -0.0417,-0.2699 -0.1252,-0.3592 -0.0829,-0.0888 -0.1864,-0.1335 -0.3092,-0.1335 -0.0759,0 -0.1494,0.0206 -0.2205,0.0611 -0.0712,0.0406 -0.1376,0.1029 -0.1988,0.1858 -0.0617,0.0835 -0.1081,0.1835 -0.1393,0.2993 -0.0318,0.1158 -0.0476,0.2034 -0.0476,0.2634z"/>
  <path id="1234" class="fil2" d="M62.5607 146.691c-0.1082,0.0929 -0.2116,0.1611 -0.3116,0.204 -0.0999,0.0435 -0.207,0.0647 -0.3204,0.0647 -0.1688,0 -0.3052,-0.0494 -0.4087,-0.1488 -0.1028,-0.0994 -0.1546,-0.2264 -0.1546,-0.3816 0,-0.1023 0.0229,-0.1928 0.0694,-0.271 0.0464,-0.0788 0.1082,-0.1423 0.1852,-0.1899 0.077,-0.0477 0.1711,-0.0818 0.2828,-0.1023 0.07,-0.0136 0.2028,-0.0247 0.3986,-0.033 0.1958,-0.0076 0.3363,-0.0288 0.421,-0.0617 0.0241,-0.0852 0.0365,-0.1558 0.0365,-0.2122 0,-0.0724 -0.0265,-0.1288 -0.0794,-0.1705 -0.0723,-0.0571 -0.1782,-0.0859 -0.3169,-0.0859 -0.1311,0 -0.2381,0.0288 -0.321,0.087 -0.0835,0.0582 -0.1441,0.1406 -0.1817,0.247l-0.3157 -0.0277c0.0646,-0.1811 0.1663,-0.3198 0.3057,-0.4168 0.1399,-0.0964 0.3157,-0.1447 0.528,-0.1447 0.2263,0 0.4057,0.0541 0.5374,0.1623 0.1011,0.08 0.1516,0.1846 0.1516,0.3134 0,0.0976 -0.0141,0.2105 -0.0429,0.3392l-0.1017 0.4551c-0.0323,0.1447 -0.0482,0.2622 -0.0482,0.3528 0,0.0576 0.0129,0.1399 0.0382,0.2481l-0.3157 0c-0.0171,-0.06 -0.0288,-0.1352 -0.0359,-0.2275zm0.1153 -0.6991c-0.0435,0.017 -0.0906,0.0306 -0.1406,0.0394 -0.0499,0.0094 -0.1334,0.0188 -0.2504,0.0294 -0.1811,0.0159 -0.3093,0.0364 -0.384,0.0611 -0.0746,0.0247 -0.1311,0.0641 -0.1687,0.1182 -0.0382,0.0535 -0.057,0.1135 -0.057,0.1787 0,0.0876 0.03,0.1594 0.0905,0.2158 0.06,0.0559 0.1458,0.0841 0.2575,0.0841 0.1035,0 0.2029,-0.027 0.2981,-0.0817 0.0953,-0.0547 0.1705,-0.1306 0.2252,-0.2282 0.0553,-0.0976 0.0982,-0.2369 0.1294,-0.4168z"/>
  <polygon class="fil2" points="72.8231,271.939 73.245,269.919 73.515,269.919 73.1415,271.711 74.19,271.711 74.142,271.939 "/>
  <path id="1" class="fil2" d="M74.7276 270.202l0.0593 -0.2827 0.2478 0 -0.0588 0.2827 -0.2483 0zm-0.3636 1.7375l0.3057 -1.4633 0.2493 0 -0.3057 1.4633 -0.2493 0z"/>
  <path id="12" class="fil2" d="M75.5832 271.737l-0.0409 0.2041c-0.0598,0.0155 -0.1176,0.0235 -0.1741,0.0235 -0.0987,0 -0.1778,-0.0244 -0.2366,-0.0733 -0.0442,-0.0367 -0.0663,-0.0866 -0.0663,-0.1501 0,-0.032 0.0118,-0.1058 0.0358,-0.222l0.1778 -0.85 -0.1971 0 0.04 -0.1928 0.197 0 0.0758 -0.3598 0.2855 -0.1722 -0.112 0.532 0.2456 0 -0.0414 0.1928 -0.2441 0 -0.1694 0.8091c-0.0211,0.1025 -0.0315,0.1641 -0.0315,0.1844 0,0.0296 0.0085,0.0517 0.0254,0.0677 0.0169,0.0155 0.0447,0.023 0.0833,0.023 0.055,0 0.1044,-0.0051 0.1472,-0.0164z"/>
  <path id="123" class="fil2" d="M76.3673 271.737l-0.0409 0.2041c-0.0598,0.0155 -0.1176,0.0235 -0.1741,0.0235 -0.0987,0 -0.1778,-0.0244 -0.2366,-0.0733 -0.0442,-0.0367 -0.0663,-0.0866 -0.0663,-0.1501 0,-0.032 0.0118,-0.1058 0.0358,-0.222l0.1778 -0.85 -0.1971 0 0.04 -0.1928 0.197 0 0.0758 -0.3598 0.2855 -0.1722 -0.112 0.532 0.2456 0 -0.0414 0.1928 -0.2441 0 -0.1694 0.8091c-0.0211,0.1025 -0.0315,0.1641 -0.0315,0.1844 0,0.0296 0.0085,0.0517 0.0254,0.0677 0.0169,0.0155 0.0447,0.023 0.0833,0.023 0.055,0 0.1044,-0.0051 0.1472,-0.0164z"/>
  <path id="1234" class="fil2" d="M76.6128 271.384c0,-0.2855 0.0842,-0.5221 0.2521,-0.7093 0.1388,-0.1548 0.3208,-0.2319 0.5457,-0.2319 0.1763,0 0.3189,0.0555 0.4266,0.1656 0.1077,0.11 0.1618,0.2591 0.1618,0.4463 0,0.1684 -0.0339,0.3246 -0.1021,0.4695 -0.0677,0.1444 -0.1646,0.2554 -0.2897,0.3325 -0.1256,0.0772 -0.2578,0.1157 -0.3965,0.1157 -0.1139,0 -0.2174,-0.024 -0.3105,-0.0729 -0.0931,-0.0484 -0.1646,-0.1176 -0.2135,-0.2065 -0.0494,-0.0893 -0.0739,-0.1924 -0.0739,-0.309zm0.2493 -0.0245c0,0.1379 0.0334,0.2423 0.0993,0.3133 0.0663,0.071 0.1505,0.1068 0.2521,0.1068 0.0536,0 0.1063,-0.0108 0.1585,-0.0325 0.0527,-0.0216 0.1011,-0.0541 0.1463,-0.0983 0.0447,-0.0442 0.0832,-0.0945 0.1147,-0.151 0.032,-0.0564 0.0574,-0.1171 0.0767,-0.1825 0.0287,-0.0912 0.0428,-0.1782 0.0428,-0.262 0,-0.1321 -0.0334,-0.2347 -0.1002,-0.3081 -0.0663,-0.0729 -0.15,-0.1091 -0.2511,-0.1091 -0.0781,0 -0.1496,0.0184 -0.2136,0.0555 -0.0644,0.0372 -0.1228,0.0917 -0.1745,0.1632 -0.0517,0.072 -0.0898,0.1553 -0.1143,0.2503 -0.0245,0.095 -0.0367,0.1796 -0.0367,0.2544z"/>
  <path id="12345" class="fil2" d="M78.1382 271.939l0.3062 -1.4633 0.2201 0 -0.0616 0.2987c0.0753,-0.1129 0.1487,-0.1966 0.2211,-0.2507 0.072,-0.0541 0.1458,-0.0814 0.2211,-0.0814 0.0494,0 0.1105,0.0179 0.1834,0.0541l-0.1021 0.2314c-0.0432,-0.0315 -0.0907,-0.047 -0.142,-0.047 -0.087,0 -0.1769,0.0489 -0.2686,0.1463 -0.0922,0.0973 -0.1641,0.2723 -0.2164,0.5249l-0.1241 0.587 -0.2371 0z"/>
  <path id="123456" class="fil2" d="M80.0648 271.757c-0.0865,0.0743 -0.1693,0.1288 -0.2493,0.1632 -0.0799,0.0348 -0.1655,0.0517 -0.2563,0.0517 -0.135,0 -0.2441,-0.0395 -0.3269,-0.119 -0.0823,-0.0795 -0.1237,-0.1811 -0.1237,-0.3052 0,-0.0819 0.0183,-0.1543 0.0555,-0.2169 0.0371,-0.063 0.0865,-0.1138 0.1481,-0.1519 0.0617,-0.0381 0.1369,-0.0654 0.2263,-0.0819 0.056,-0.0108 0.1623,-0.0197 0.3189,-0.0263 0.1566,-0.0061 0.2691,-0.023 0.3368,-0.0494 0.0193,-0.0682 0.0291,-0.1246 0.0291,-0.1698 0,-0.0578 -0.0211,-0.103 -0.0635,-0.1364 -0.0578,-0.0456 -0.1425,-0.0687 -0.2535,-0.0687 -0.1049,0 -0.1905,0.0231 -0.2568,0.0696 -0.0668,0.0466 -0.1152,0.1125 -0.1453,0.1976l-0.2526 -0.0221c0.0517,-0.1449 0.1331,-0.2559 0.2446,-0.3335 0.1119,-0.0771 0.2525,-0.1157 0.4223,-0.1157 0.1811,0 0.3246,0.0433 0.43,0.1298 0.0809,0.064 0.1213,0.1477 0.1213,0.2507 0,0.0781 -0.0113,0.1684 -0.0343,0.2714l-0.0814 0.3641c-0.0259,0.1157 -0.0386,0.2098 -0.0386,0.2822 0,0.0461 0.0104,0.112 0.0306,0.1985l-0.2526 0c-0.0136,-0.048 -0.023,-0.1082 -0.0287,-0.182zm0.0922 -0.5593c-0.0348,0.0136 -0.0724,0.0245 -0.1124,0.0315 -0.04,0.0075 -0.1068,0.0151 -0.2004,0.0235 -0.1448,0.0127 -0.2474,0.0292 -0.3071,0.049 -0.0598,0.0197 -0.1049,0.0512 -0.135,0.0945 -0.0306,0.0428 -0.0456,0.0908 -0.0456,0.143 0,0.0701 0.0239,0.1275 0.0724,0.1726 0.048,0.0447 0.1166,0.0673 0.206,0.0673 0.0828,0 0.1623,-0.0217 0.2385,-0.0654 0.0762,-0.0437 0.1364,-0.1044 0.1801,-0.1825 0.0443,-0.0781 0.0786,-0.1896 0.1035,-0.3335z"/>
  <path class="fil2" d="M58.3355 266.089l0.5268 -2.5252 0.4151 0 0.2552 1.6362c0.0329,0.2152 0.0553,0.421 0.0652,0.6185 0.07,-0.1699 0.187,-0.4004 0.3516,-0.6908l0.8855 -1.5639 0.4216 0 -0.5268 2.5252 -0.3322 0 0.2634 -1.2282c0.0605,-0.2834 0.1481,-0.6015 0.2616,-0.9543 -0.0723,0.1641 -0.1617,0.341 -0.2687,0.5304l-0.9407 1.6521 -0.3252 0 -0.2534 -1.6192c-0.0229,-0.1482 -0.0393,-0.321 -0.0499,-0.5186 -0.0288,0.2217 -0.0571,0.3975 -0.0841,0.5274l-0.3363 1.6104 -0.3287 0z"/>
  <path id="1" class="fil2" d="M61.2912 265.395c0,-0.3569 0.1052,-0.6526 0.3151,-0.8866 0.1735,-0.1934 0.401,-0.2899 0.682,-0.2899 0.2205,0 0.3987,0.0694 0.5333,0.207 0.1346,0.1376 0.2023,0.324 0.2023,0.558 0,0.2105 -0.0424,0.4057 -0.1276,0.5867 -0.0847,0.1805 -0.2058,0.3193 -0.3622,0.4157 -0.157,0.0964 -0.3222,0.1447 -0.4956,0.1447 -0.1423,0 -0.2717,-0.03 -0.3881,-0.0912 -0.1164,-0.0605 -0.2058,-0.147 -0.2669,-0.2581 -0.0618,-0.1117 -0.0923,-0.2405 -0.0923,-0.3863zm0.3116 -0.0305c0,0.1722 0.0417,0.3028 0.124,0.3915 0.0829,0.0888 0.1882,0.1335 0.3152,0.1335 0.067,0 0.1329,-0.0135 0.1981,-0.0406 0.0659,-0.027 0.1264,-0.0676 0.1829,-0.1229 0.0558,-0.0552 0.104,-0.1181 0.1434,-0.1887 0.04,-0.0705 0.0718,-0.1464 0.0959,-0.2281 0.0358,-0.1141 0.0535,-0.2228 0.0535,-0.3275 0,-0.1652 -0.0418,-0.2934 -0.1253,-0.3851 -0.0829,-0.0911 -0.1875,-0.1364 -0.3139,-0.1364 -0.0976,0 -0.187,0.0229 -0.267,0.0694 -0.0805,0.0464 -0.1534,0.1146 -0.2181,0.204 -0.0647,0.0899 -0.1123,0.194 -0.1429,0.3128 -0.0305,0.1187 -0.0458,0.2246 -0.0458,0.3181z"/>
  <path id="12" class="fil2" d="M63.1979 266.089l0.3828 -1.8291 0.2822 0 -0.0671 0.3187c0.1229,-0.1253 0.2376,-0.217 0.3446,-0.274 0.1064,-0.0576 0.2158,-0.0865 0.3269,-0.0865 0.1481,0 0.2646,0.0406 0.3492,0.1206 0.0841,0.0805 0.1264,0.1881 0.1264,0.3222 0,0.0682 -0.0147,0.1746 -0.0446,0.3204l-0.2329 1.1077 -0.3116 0 0.2428 -1.1594c0.0241,-0.1123 0.0365,-0.1958 0.0365,-0.2493 0,-0.0612 -0.0212,-0.1106 -0.0629,-0.1482 -0.0424,-0.0382 -0.1029,-0.057 -0.1817,-0.057 -0.1599,0 -0.3022,0.0576 -0.4263,0.1722 -0.1246,0.1147 -0.2163,0.3117 -0.2751,0.5909l-0.177 0.8508 -0.3122 0z"/>
  <path id="123" class="fil2" d="M65.2152 265.395c0,-0.3569 0.1052,-0.6526 0.3151,-0.8866 0.1735,-0.1934 0.401,-0.2899 0.682,-0.2899 0.2205,0 0.3987,0.0694 0.5333,0.207 0.1346,0.1376 0.2023,0.324 0.2023,0.558 0,0.2105 -0.0424,0.4057 -0.1276,0.5867 -0.0847,0.1805 -0.2058,0.3193 -0.3622,0.4157 -0.157,0.0964 -0.3222,0.1447 -0.4956,0.1447 -0.1423,0 -0.2717,-0.03 -0.3881,-0.0912 -0.1164,-0.0605 -0.2058,-0.147 -0.2669,-0.2581 -0.0618,-0.1117 -0.0923,-0.2405 -0.0923,-0.3863zm0.3116 -0.0305c0,0.1722 0.0417,0.3028 0.124,0.3915 0.0829,0.0888 0.1882,0.1335 0.3152,0.1335 0.067,0 0.1329,-0.0135 0.1981,-0.0406 0.0659,-0.027 0.1264,-0.0676 0.1829,-0.1229 0.0558,-0.0552 0.104,-0.1181 0.1434,-0.1887 0.04,-0.0705 0.0718,-0.1464 0.0959,-0.2281 0.0358,-0.1141 0.0535,-0.2228 0.0535,-0.3275 0,-0.1652 -0.0418,-0.2934 -0.1253,-0.3851 -0.0829,-0.0911 -0.1875,-0.1364 -0.3139,-0.1364 -0.0976,0 -0.187,0.0229 -0.267,0.0694 -0.0805,0.0464 -0.1534,0.1146 -0.2181,0.204 -0.0647,0.0899 -0.1123,0.194 -0.1429,0.3128 -0.0305,0.1187 -0.0458,0.2246 -0.0458,0.3181z"/>
  <path class="fil2" d="M71.1473 237.039l0.033 -0.2534 1.2646 -1.5104 0.2617 -0.317c0.0529,-0.064 0.1041,-0.1234 0.1534,-0.1775 -0.107,0.0129 -0.1816,0.0188 -0.224,0.0188l-0.0829 -0.0018 -0.0999 0.0018 -0.0982 0.0018 -0.849 0 0.06 -0.2875 1.7415 0 -0.0288 0.2634 -1.3559 1.6109c-0.1663,0.1982 -0.2722,0.3228 -0.3169,0.3734 0.0506,-0.0065 0.0829,-0.01 0.0982,-0.01l1.3764 0 -0.0605 0.2875 -1.8727 0z"/>
  <path id="1" class="fil2" d="M73.3886 236.345c0,-0.3569 0.1052,-0.6526 0.3151,-0.8866 0.1735,-0.1934 0.401,-0.2899 0.682,-0.2899 0.2205,0 0.3987,0.0694 0.5333,0.207 0.1346,0.1376 0.2023,0.324 0.2023,0.558 0,0.2105 -0.0424,0.4057 -0.1276,0.5867 -0.0847,0.1805 -0.2058,0.3193 -0.3622,0.4157 -0.157,0.0964 -0.3222,0.1447 -0.4956,0.1447 -0.1423,0 -0.2717,-0.03 -0.3881,-0.0912 -0.1164,-0.0605 -0.2058,-0.147 -0.2669,-0.2581 -0.0618,-0.1117 -0.0923,-0.2405 -0.0923,-0.3863zm0.3116 -0.0305c0,0.1722 0.0417,0.3028 0.124,0.3915 0.0829,0.0888 0.1882,0.1335 0.3152,0.1335 0.067,0 0.1329,-0.0135 0.1981,-0.0406 0.0659,-0.027 0.1264,-0.0676 0.1829,-0.1229 0.0558,-0.0552 0.104,-0.1181 0.1434,-0.1887 0.04,-0.0705 0.0718,-0.1464 0.0959,-0.2281 0.0358,-0.1141 0.0535,-0.2228 0.0535,-0.3275 0,-0.1652 -0.0418,-0.2934 -0.1253,-0.3851 -0.0829,-0.0911 -0.1875,-0.1364 -0.3139,-0.1364 -0.0976,0 -0.187,0.0229 -0.267,0.0694 -0.0805,0.0464 -0.1534,0.1146 -0.2181,0.204 -0.0647,0.0899 -0.1123,0.194 -0.1429,0.3128 -0.0305,0.1187 -0.0458,0.2246 -0.0458,0.3181z"/>
  <path id="12" class="fil2" d="M76.5441 236.708c-0.2193,0.2481 -0.4439,0.3722 -0.6732,0.3722 -0.1411,0 -0.2552,-0.0406 -0.3422,-0.1212 -0.0864,-0.0811 -0.1299,-0.1799 -0.1299,-0.2975 0,-0.0764 0.0194,-0.2087 0.0588,-0.3957l0.2205 -1.0559 0.3116 0 -0.2446 1.1694c-0.0206,0.0976 -0.0312,0.1735 -0.0312,0.2276 0,0.0687 0.0212,0.1223 0.0629,0.1611 0.0418,0.0382 0.1035,0.0576 0.1852,0.0576 0.0871,0 0.1723,-0.0212 0.2558,-0.0641 0.0835,-0.0423 0.1552,-0.1 0.2152,-0.1723 0.0605,-0.0723 0.1093,-0.1576 0.1476,-0.2563 0.0252,-0.0635 0.0546,-0.1741 0.0876,-0.3328l0.1652 -0.7902 0.3122 0 -0.3828 1.8291 -0.2875 0 0.0688 -0.331z"/>
  <line class="fil3 str1" x1="81.5239" y1="271.009" x2="86.5528" y2= "271.964" />
  <path class="fil2" d="M89.8333 242.235l0.496 -2.5252 0.9892 0c0.1715,0 0.3,0.0211 0.3855,0.0629 0.0856,0.0417 0.1567,0.1134 0.2125,0.2152 0.0562,0.1017 0.0843,0.2157 0.0843,0.3421 0,0.1041 -0.0204,0.2105 -0.06,0.3187 -0.0398,0.1076 -0.09,0.197 -0.1512,0.2669 -0.0607,0.07 -0.1225,0.1229 -0.1849,0.1582 -0.0628,0.0359 -0.1296,0.0623 -0.2007,0.0794 -0.1518,0.0382 -0.3052,0.057 -0.4602,0.057l-0.5936 0 -0.2002 1.0248 -0.3167 0zm0.5738 -1.3111l0.5219 0c0.2024,0 0.3514,-0.023 0.4462,-0.0694 0.0949,-0.0465 0.1705,-0.1176 0.2279,-0.2128 0.0568,-0.0953 0.0855,-0.1964 0.0855,-0.3034 0,-0.0823 -0.0149,-0.15 -0.0452,-0.2023 -0.0304,-0.0523 -0.0729,-0.0905 -0.1275,-0.1152 -0.0552,-0.0247 -0.1606,-0.0371 -0.3172,-0.0371l-0.6074 0 -0.1842 0.9402z"/>
  <polygon id="1" class="fil2" points="91.986,242.235 92.4808,239.71 92.7732,239.71 92.2783,242.235 "/>
  <path id="12" class="fil2" d="M93.9014 242.008c-0.1016,0.0929 -0.1986,0.1611 -0.2924,0.204 -0.0937,0.0435 -0.1942,0.0647 -0.3006,0.0647 -0.1584,0 -0.2864,-0.0494 -0.3835,-0.1488 -0.0965,-0.0994 -0.1451,-0.2264 -0.1451,-0.3816 0,-0.1023 0.0215,-0.1928 0.0651,-0.271 0.0436,-0.0788 0.1016,-0.1423 0.1738,-0.1899 0.0723,-0.0477 0.1606,-0.0818 0.2654,-0.1023 0.0656,-0.0136 0.1903,-0.0247 0.374,-0.033 0.1837,-0.0076 0.3155,-0.0288 0.395,-0.0617 0.0226,-0.0852 0.0342,-0.1558 0.0342,-0.2122 0,-0.0724 -0.0248,-0.1288 -0.0745,-0.1705 -0.0678,-0.0571 -0.1672,-0.0859 -0.2973,-0.0859 -0.123,0 -0.2234,0.0288 -0.3012,0.087 -0.0783,0.0582 -0.1352,0.1406 -0.1705,0.247l-0.2962 -0.0277c0.0606,-0.1811 0.156,-0.3198 0.2868,-0.4168 0.1313,-0.0964 0.2962,-0.1447 0.4954,-0.1447 0.2124,0 0.3807,0.0541 0.5043,0.1623 0.0949,0.08 0.1422,0.1846 0.1422,0.3134 0,0.0976 -0.0132,0.2105 -0.0402,0.3392l-0.0954 0.4551c-0.0303,0.1447 -0.0453,0.2622 -0.0453,0.3528 0,0.0576 0.0121,0.1399 0.0359,0.2481l-0.2962 0c-0.0161,-0.06 -0.0271,-0.1352 -0.0337,-0.2275zm0.1082 -0.6991c-0.0409,0.017 -0.0851,0.0306 -0.132,0.0394 -0.0468,0.0094 -0.1251,0.0188 -0.2349,0.0294 -0.1699,0.0159 -0.2902,0.0364 -0.3603,0.0611 -0.07,0.0247 -0.123,0.0641 -0.1583,0.1182 -0.0359,0.0535 -0.0535,0.1135 -0.0535,0.1787 0,0.0876 0.0282,0.1594 0.0849,0.2158 0.0563,0.0559 0.1368,0.0841 0.2416,0.0841 0.0971,0 0.1904,-0.027 0.2797,-0.0817 0.0895,-0.0547 0.16,-0.1306 0.2113,-0.2282 0.0519,-0.0976 0.0922,-0.2369 0.1215,-0.4168z"/>
  <path id="123" class="fil2" d="M95.2684 241.982l-0.048 0.2552c-0.07,0.0194 -0.1379,0.0294 -0.2041,0.0294 -0.1159,0 -0.2086,-0.0306 -0.2775,-0.0918 -0.0518,-0.0458 -0.0778,-0.1081 -0.0778,-0.1875 0,-0.04 0.0138,-0.1323 0.0419,-0.2775l0.2086 -1.0625 -0.2312 0 0.0469 -0.241 0.2311 0 0.0889 -0.4498 0.3349 -0.2152 -0.1313 0.665 0.288 0 -0.0487 0.241 -0.2862 0 -0.1987 1.0113c-0.0247,0.1282 -0.0369,0.2052 -0.0369,0.2305 0,0.037 0.0099,0.0647 0.0298,0.0847 0.0198,0.0194 0.0524,0.0288 0.0976,0.0288 0.0645,0 0.1225,-0.0065 0.1727,-0.0206z"/>
  <path id="1234" class="fil2" d="M96.7651 241.613l0.2846 0.0312c-0.0408,0.1505 -0.1351,0.2934 -0.2819,0.4292 -0.1473,0.1352 -0.3227,0.2029 -0.5263,0.2029 -0.1268,0 -0.2439,-0.0312 -0.3498,-0.0935 -0.1058,-0.0629 -0.187,-0.1541 -0.2427,-0.2734 -0.0552,-0.1194 -0.0827,-0.2552 -0.0827,-0.4081 0,-0.1999 0.043,-0.3933 0.1296,-0.5814 0.0872,-0.1876 0.1992,-0.3269 0.3371,-0.4187 0.1379,-0.0911 0.2874,-0.137 0.448,-0.137 0.2046,0 0.3679,0.0682 0.4904,0.2035 0.1225,0.1358 0.1832,0.3204 0.1832,0.5544 0,0.09 -0.0073,0.1817 -0.0226,0.2758l-1.2639 0c-0.004,0.0358 -0.0061,0.0676 -0.0061,0.0964 0,0.1711 0.0369,0.3016 0.1103,0.3921 0.074,0.09 0.1644,0.1353 0.2709,0.1353 0.1004,0 0.1985,-0.0353 0.2957,-0.1053 0.0971,-0.0699 0.1726,-0.1711 0.2262,-0.3034zm-0.8502 -0.4527l0.9632 0c0.0012,-0.0323 0.0017,-0.0552 0.0017,-0.0688 0,-0.1564 -0.0364,-0.2763 -0.1097,-0.3592 -0.0734,-0.0835 -0.1678,-0.1252 -0.2831,-0.1252 -0.1246,0 -0.2388,0.0464 -0.3415,0.1381 -0.1031,0.0918 -0.1798,0.2299 -0.2306,0.4151z"/>
  <path id="12345" class="fil2" d="M98.5029 242.008c-0.1016,0.0929 -0.1986,0.1611 -0.2924,0.204 -0.0937,0.0435 -0.1942,0.0647 -0.3006,0.0647 -0.1584,0 -0.2864,-0.0494 -0.3835,-0.1488 -0.0965,-0.0994 -0.1451,-0.2264 -0.1451,-0.3816 0,-0.1023 0.0215,-0.1928 0.0651,-0.271 0.0436,-0.0788 0.1016,-0.1423 0.1738,-0.1899 0.0723,-0.0477 0.1606,-0.0818 0.2654,-0.1023 0.0656,-0.0136 0.1903,-0.0247 0.374,-0.033 0.1837,-0.0076 0.3155,-0.0288 0.395,-0.0617 0.0226,-0.0852 0.0342,-0.1558 0.0342,-0.2122 0,-0.0724 -0.0248,-0.1288 -0.0745,-0.1705 -0.0678,-0.0571 -0.1672,-0.0859 -0.2973,-0.0859 -0.123,0 -0.2234,0.0288 -0.3012,0.087 -0.0783,0.0582 -0.1352,0.1406 -0.1705,0.247l-0.2962 -0.0277c0.0606,-0.1811 0.156,-0.3198 0.2868,-0.4168 0.1313,-0.0964 0.2962,-0.1447 0.4954,-0.1447 0.2124,0 0.3807,0.0541 0.5043,0.1623 0.0949,0.08 0.1422,0.1846 0.1422,0.3134 0,0.0976 -0.0132,0.2105 -0.0402,0.3392l-0.0954 0.4551c-0.0303,0.1447 -0.0453,0.2622 -0.0453,0.3528 0,0.0576 0.0121,0.1399 0.0359,0.2481l-0.2962 0c-0.0161,-0.06 -0.0271,-0.1352 -0.0337,-0.2275zm0.1082 -0.6991c-0.0409,0.017 -0.0851,0.0306 -0.132,0.0394 -0.0468,0.0094 -0.1251,0.0188 -0.2349,0.0294 -0.1699,0.0159 -0.2902,0.0364 -0.3603,0.0611 -0.07,0.0247 -0.123,0.0641 -0.1583,0.1182 -0.0359,0.0535 -0.0535,0.1135 -0.0535,0.1787 0,0.0876 0.0282,0.1594 0.0849,0.2158 0.0563,0.0559 0.1368,0.0841 0.2416,0.0841 0.0971,0 0.1904,-0.027 0.2797,-0.0817 0.0895,-0.0547 0.16,-0.1306 0.2113,-0.2282 0.0519,-0.0976 0.0922,-0.2369 0.1215,-0.4168z"/>
  <path id="123456" class="fil2" d="M100.358 241.904c-0.2057,0.2481 -0.4165,0.3722 -0.6316,0.3722 -0.1324,0 -0.2395,-0.0406 -0.3211,-0.1212 -0.0811,-0.0811 -0.1219,-0.1799 -0.1219,-0.2975 0,-0.0764 0.0182,-0.2087 0.0552,-0.3957l0.2069 -1.0559 0.2923 0 -0.2295 1.1694c-0.0193,0.0976 -0.0292,0.1735 -0.0292,0.2276 0,0.0687 0.0198,0.1223 0.059,0.1611 0.0392,0.0382 0.0971,0.0576 0.1737,0.0576 0.0818,0 0.1617,-0.0212 0.2401,-0.0641 0.0783,-0.0423 0.1456,-0.1 0.2019,-0.1723 0.0567,-0.0723 0.1025,-0.1576 0.1385,-0.2563 0.0236,-0.0635 0.0512,-0.1741 0.0822,-0.3328l0.155 -0.7902 0.2929 0 -0.3592 1.8291 -0.2697 0 0.0645 -0.331z"/>
  <path class="fil2" d="M85.5399 260.563c0,-0.4498 0.1212,-0.8143 0.3635,-1.093 0.2429,-0.2781 0.5368,-0.4175 0.8827,-0.4175 0.2934,0 0.5324,0.1023 0.7171,0.3075 0.1848,0.2046 0.2774,0.4798 0.2774,0.8243 0,0.2458 -0.0465,0.4733 -0.1398,0.6838 -0.0695,0.157 -0.1573,0.2928 -0.2637,0.4075 -0.1058,0.114 -0.2193,0.2022 -0.3404,0.264 -0.1607,0.0829 -0.3306,0.124 -0.5105,0.124 -0.1885,0 -0.3602,-0.0482 -0.5148,-0.1446 -0.1552,-0.0964 -0.2719,-0.2311 -0.3519,-0.4039 -0.0795,-0.1729 -0.1196,-0.3569 -0.1196,-0.5521zm0.3098 0.017c0,0.1482 0.029,0.2846 0.0861,0.4087 0.0575,0.124 0.1426,0.221 0.256,0.291 0.1135,0.07 0.233,0.1052 0.3586,0.1052 0.1206,0 0.2357,-0.0311 0.3454,-0.0923 0.1091,-0.0617 0.2067,-0.147 0.2928,-0.2569 0.0861,-0.1094 0.154,-0.2446 0.2039,-0.4045 0.0499,-0.1605 0.0745,-0.3181 0.0745,-0.4727 0,-0.2517 -0.0652,-0.4522 -0.1962,-0.6015 -0.1316,-0.1493 -0.2933,-0.224 -0.4864,-0.224 -0.246,0 -0.4632,0.1129 -0.6518,0.3386 -0.1886,0.2258 -0.2829,0.5286 -0.2829,0.9084z"/>
  <path id="1" class="fil2" d="M89.0718 261.29c-0.2045,0.2481 -0.4139,0.3722 -0.6278,0.3722 -0.1315,0 -0.2379,-0.0406 -0.3191,-0.1212 -0.0805,-0.0811 -0.1211,-0.1799 -0.1211,-0.2975 0,-0.0764 0.0181,-0.2087 0.0548,-0.3957l0.2057 -1.0559 0.2905 0 -0.2281 1.1694c-0.0192,0.0976 -0.0291,0.1735 -0.0291,0.2276 0,0.0687 0.0198,0.1223 0.0587,0.1611 0.039,0.0382 0.0965,0.0576 0.1727,0.0576 0.0812,0 0.1607,-0.0212 0.2385,-0.0641 0.0779,-0.0423 0.1447,-0.1 0.2007,-0.1723 0.0564,-0.0723 0.1019,-0.1576 0.1376,-0.2563 0.0235,-0.0635 0.0509,-0.1741 0.0817,-0.3328l0.1541 -0.7902 0.2911 0 -0.357 1.8291 -0.2681 0 0.0642 -0.331z"/>
  <path id="12" class="fil2" d="M90.9897 260.999l0.2828 0.0312c-0.0405,0.1505 -0.1343,0.2934 -0.2801,0.4292 -0.1464,0.1352 -0.3207,0.2029 -0.523,0.2029 -0.1261,0 -0.2424,-0.0312 -0.3477,-0.0935 -0.1051,-0.0629 -0.1858,-0.1541 -0.2412,-0.2734 -0.0548,-0.1194 -0.0821,-0.2552 -0.0821,-0.4081 0,-0.1999 0.0427,-0.3933 0.1287,-0.5814 0.0867,-0.1876 0.198,-0.3269 0.3351,-0.4187 0.137,-0.0911 0.2856,-0.137 0.4451,-0.137 0.2034,0 0.3657,0.0682 0.4875,0.2035 0.1216,0.1358 0.182,0.3204 0.182,0.5544 0,0.09 -0.0072,0.1817 -0.0225,0.2758l-1.2561 0c-0.0039,0.0358 -0.006,0.0676 -0.006,0.0964 0,0.1711 0.0367,0.3016 0.1096,0.3921 0.0735,0.09 0.1634,0.1353 0.2692,0.1353 0.0998,0 0.1974,-0.0353 0.2939,-0.1053 0.0965,-0.0699 0.1716,-0.1711 0.2248,-0.3034zm-0.8449 -0.4527l0.9573 0c0.0011,-0.0323 0.0016,-0.0552 0.0016,-0.0688 0,-0.1564 -0.0361,-0.2763 -0.1091,-0.3592 -0.0729,-0.0835 -0.1667,-0.1252 -0.2813,-0.1252 -0.1238,0 -0.2373,0.0464 -0.3393,0.1381 -0.1025,0.0918 -0.1788,0.2299 -0.2292,0.4151zm0.4019 -0.9766l0.3015 -0.4738 0.3662 0 -0.4271 0.4738 -0.2406 0z"/>
  <path id="123" class="fil2" d="M91.5647 261.621l0.357 -1.8291 0.2905 0 -0.0592 0.301c0.108,-0.1293 0.2045,-0.2193 0.2895,-0.2687 0.0856,-0.0494 0.1776,-0.0741 0.2774,-0.0741 0.1058,0 0.1947,0.0306 0.2659,0.0906 0.0708,0.0605 0.1179,0.1446 0.1404,0.2522 0.0866,-0.1146 0.1782,-0.2005 0.2736,-0.2575 0.0959,-0.0564 0.1968,-0.0853 0.3031,-0.0853 0.142,0 0.249,0.0365 0.3202,0.1088 0.0713,0.0723 0.107,0.174 0.107,0.3046 0,0.0564 -0.0121,0.1493 -0.0368,0.2792l-0.2297 1.1783 -0.2911 0 0.2347 -1.2094c0.0202,-0.0988 0.0306,-0.1693 0.0306,-0.2117 0,-0.0599 -0.0175,-0.107 -0.0532,-0.1411 -0.0351,-0.0347 -0.0849,-0.0517 -0.1491,-0.0517 -0.0872,0 -0.1754,0.0282 -0.2653,0.0841 -0.09,0.0564 -0.1595,0.1305 -0.2094,0.2216 -0.0499,0.0911 -0.0933,0.2317 -0.1311,0.421l-0.1733 0.8872 -0.2911 0 0.2412 -1.2353c0.0171,-0.0835 0.0258,-0.1434 0.0258,-0.1787 0,-0.06 -0.0175,-0.1082 -0.0521,-0.1447 -0.035,-0.037 -0.08,-0.0552 -0.1359,-0.0552 -0.0823,0 -0.1689,0.0282 -0.2594,0.0841 -0.0904,0.0564 -0.1639,0.1346 -0.2209,0.2351 -0.0565,0.1006 -0.1031,0.244 -0.1398,0.4298l-0.1684 0.8649 -0.2911 0z"/>
  <path id="1234" class="fil2" d="M95.5594 260.999l0.2828 0.0312c-0.0405,0.1505 -0.1343,0.2934 -0.2801,0.4292 -0.1464,0.1352 -0.3207,0.2029 -0.523,0.2029 -0.1261,0 -0.2424,-0.0312 -0.3477,-0.0935 -0.1051,-0.0629 -0.1858,-0.1541 -0.2412,-0.2734 -0.0548,-0.1194 -0.0821,-0.2552 -0.0821,-0.4081 0,-0.1999 0.0427,-0.3933 0.1287,-0.5814 0.0867,-0.1876 0.198,-0.3269 0.3351,-0.4187 0.137,-0.0911 0.2856,-0.137 0.4451,-0.137 0.2034,0 0.3657,0.0682 0.4875,0.2035 0.1216,0.1358 0.182,0.3204 0.182,0.5544 0,0.09 -0.0072,0.1817 -0.0225,0.2758l-1.2561 0c-0.0039,0.0358 -0.006,0.0676 -0.006,0.0964 0,0.1711 0.0367,0.3016 0.1096,0.3921 0.0735,0.09 0.1634,0.1353 0.2692,0.1353 0.0998,0 0.1974,-0.0353 0.2939,-0.1053 0.0965,-0.0699 0.1716,-0.1711 0.2248,-0.3034zm-0.8449 -0.4527l0.9573 0c0.0011,-0.0323 0.0016,-0.0552 0.0016,-0.0688 0,-0.1564 -0.0361,-0.2763 -0.1091,-0.3592 -0.0729,-0.0835 -0.1667,-0.1252 -0.2813,-0.1252 -0.1238,0 -0.2373,0.0464 -0.3393,0.1381 -0.1025,0.0918 -0.1788,0.2299 -0.2292,0.4151zm0.4019 -0.9766l0.3015 -0.4738 0.3662 0 -0.4271 0.4738 -0.2406 0z"/>
 </g>
</svg>
